<svg width="222" height="80" viewBox="0 0 222 80" fill="none" xmlns="http://www.w3.org/2000/svg">
<path d="M19.0613 40.6292H0V59.6904H19.0613V40.6292Z" fill="#0265B5"/>
<path d="M4.86182 43.7571V51.2709C4.86182 55.2488 6.85077 56.7074 9.45851 56.7074C12.1988 56.7074 14.2762 55.1162 14.2762 51.1825V43.7571H12.5966V51.3151C12.5966 54.0996 11.3591 55.3814 9.50271 55.3814C7.77895 55.3814 6.54138 54.188 6.54138 51.3151V43.7571H4.86182Z" fill="white"/>
<path d="M39.3816 40.6187H20.2876V59.7126H39.3816V40.6187Z" fill="#0265B5"/>
<path d="M26.6082 56.5306V51.0941C26.6082 48.9726 26.6082 47.4256 26.4756 45.8344H26.5198C27.1386 47.2046 27.9784 48.6632 28.9066 50.0775L32.9729 56.5306H34.6524V43.8013H33.1055V49.1494C33.1055 51.1383 33.1497 52.6853 33.2823 54.3648H33.2381C32.6635 53.0389 31.9121 51.7129 30.9839 50.2101L26.9176 43.7571H25.1055V56.5306H26.6082Z" fill="white"/>
<path d="M39.3816 60.906H20.2876V80H39.3816V60.906Z" fill="#0265B5"/>
<path d="M33.0605 64.9726C32.3092 64.3097 31.1158 63.9119 29.4804 63.9119C28.1544 63.9119 27.0937 64.0445 26.3423 64.1771V76.7738H27.9776V71.6467C28.3754 71.7351 28.8174 71.7793 29.3036 71.7793C30.8948 71.7793 32.3091 71.2931 33.1931 70.3649C33.8561 69.7019 34.2097 68.7738 34.2097 67.6246C34.2097 66.5196 33.7677 65.5914 33.0605 64.9726Z" fill="white"/>
<path d="M29.3477 70.5414C28.8173 70.5414 28.3311 70.4972 27.9775 70.4088V65.4585C28.2427 65.4143 28.8173 65.3259 29.5245 65.3259C31.3367 65.3259 32.53 66.1215 32.53 67.8453C32.53 69.569 31.3367 70.5414 29.3477 70.5414Z" fill="#0265B5"/>
<path d="M19.094 60.906H0V80H19.094V60.906Z" fill="#0265B5"/>
<path d="M13.4367 65.503C12.3317 64.4422 10.6522 63.9119 8.26541 63.9119C6.93944 63.9119 5.79027 64.0445 4.72949 64.1771V76.7296C5.56927 76.8622 6.54165 76.8622 7.73502 76.8622C10.2102 76.8622 12.1991 76.2434 13.3925 75.05C14.5417 73.9008 15.2047 72.1771 15.2047 70.0997C15.2488 68.0224 14.5859 66.5196 13.4367 65.503Z" fill="white"/>
<path d="M8.08825 75.5357C7.42527 75.5357 6.85068 75.5357 6.40869 75.4473V65.3699C6.85068 65.2815 7.46947 65.1931 8.35345 65.1931C11.8452 65.1931 13.5247 67.0495 13.5247 70.0992C13.5247 73.5909 11.58 75.5799 8.08825 75.5357Z" fill="#0265B5"/>
<path d="M39.3813 0H0V39.4255H39.3813V0Z" fill="#0265B5"/>
<path d="M33.8124 20.5084C33.282 21.304 32.5748 22.0112 32.0886 22.8067C32.1328 22.188 32.2212 21.3924 31.956 20.8178C31.514 19.536 31.1604 18.2101 31.0278 16.7957V16.2653C31.3372 17.7239 32.7516 18.6962 32.6632 20.3316C32.7074 20.7294 32.5748 21.0388 32.4864 21.3924L32.5306 21.4366L32.5748 21.3482C32.7958 20.5526 32.8842 19.7128 33.1936 18.9614C33.6798 17.9007 34.2544 16.8399 33.9892 15.5139C34.8289 17.0609 34.608 19.094 33.8124 20.5084Z" fill="white"/>
<path d="M32.9283 12.3314C33.8565 13.6132 34.0775 15.6022 33.3703 17.0607C33.1051 17.6795 32.9283 18.3425 32.8399 19.0055C32.7957 18.8729 32.7957 18.7403 32.7515 18.6077C32.398 17.1933 31.0278 16.1767 30.4974 14.8508C30.3206 14.4088 30.188 13.9668 30.0996 13.4806C30.6742 14.5856 32.1328 15.116 32.5306 16.3093C32.7073 16.6187 32.6631 16.9723 32.7957 17.3259C32.8399 17.3259 32.8399 17.3259 32.8399 17.2817C32.6632 16.0441 32.7074 14.7624 32.8841 13.5248C32.8841 12.8618 32.7957 12.243 32.4422 11.7126C32.6632 11.8894 32.7957 12.1546 32.9283 12.3314Z" fill="white"/>
<path d="M32.3098 12.1106C32.575 13.2156 32.2214 14.2764 32.4424 15.3813C31.8236 14.188 30.5861 13.6576 29.7021 12.6852C29.1717 12.1106 28.9507 11.4476 28.8623 10.6962C29.3485 11.8896 30.7187 12.199 31.5142 13.2156C31.7794 13.4366 31.8678 13.7902 32.0446 14.0554L32.0888 14.0112C31.6468 13.0388 31.47 11.978 31.2048 10.9614C31.0281 10.5194 30.7187 10.0774 30.3209 9.81226C31.2048 10.0774 32.0888 11.1382 32.3098 12.1106Z" fill="white"/>
<path d="M29.5691 9.59129C30.3205 10.2985 30.6741 11.1825 30.8951 12.1106L31.0277 12.42C29.9227 11.6244 28.9061 10.5195 28.1989 9.4145L27.3149 8.53052C28.0663 8.79571 28.9061 8.97251 29.5691 9.59129Z" fill="white"/>
<path d="M14.9389 8.70704C16.3974 7.99985 17.9886 7.60206 19.7124 7.55786C23.6903 7.55786 27.4472 9.90041 29.1709 13.5689C30.2759 15.6905 30.5853 18.5634 29.8781 20.9502C29.1709 23.7789 26.7842 26.6076 24.0439 27.7568C20.9499 29.2596 16.53 28.906 13.7897 26.917C9.94439 24.3093 8.39742 19.7568 9.5466 15.2927C10.2538 12.6407 12.3753 9.94461 14.9389 8.70704Z" fill="white"/>
<path d="M11.9337 8.6189C11.1823 9.28188 10.6077 10.1659 10.0331 10.9614C9.50271 11.5802 8.88392 12.0222 8.26514 12.5526C8.57453 11.8896 8.57453 11.1382 9.06072 10.5195C9.6795 9.41448 10.8729 9.01669 11.9337 8.6189Z" fill="white"/>
<path d="M7.69078 10.9614C8.04437 10.4752 8.53056 10.1658 9.06095 10.0332C8.04437 10.7404 8.08857 12.0222 7.77918 13.0829C7.69078 13.4807 7.46978 13.8343 7.38139 14.2321L7.42559 14.2763C7.60238 13.8343 7.91177 13.3923 8.26537 12.9945C9.01675 12.3315 10.1217 11.8896 10.4753 10.873C10.4753 12.2874 9.28194 13.3923 8.17697 14.1879C7.69078 14.5857 7.24879 15.0719 7.02779 15.5581C6.9836 15.2045 7.07199 14.8509 7.07199 14.4531C6.9394 13.2597 6.851 11.8896 7.69078 10.9614Z" fill="white"/>
<path d="M5.61298 15.1604C5.56878 13.9228 6.09917 12.9062 6.80635 11.978L6.85055 11.9338C6.05497 13.1272 6.71796 14.6742 6.67376 16.0443L6.58536 17.4587C6.58536 17.4587 6.58536 17.5029 6.62956 17.5029C6.67376 17.3261 6.67376 17.1935 6.71796 17.0167C6.89475 15.8675 7.91133 15.072 8.75111 14.2764C8.92791 14.0554 9.1047 13.8786 9.1931 13.6134C9.1047 14.188 8.92791 14.7626 8.70691 15.293C8.04393 16.6189 6.80635 17.6797 6.58536 19.1825C6.49696 17.7681 5.48039 16.6631 5.61298 15.1604Z" fill="white"/>
<path d="M4.99451 16.9282C5.0829 16.5304 5.1713 16.1326 5.3039 15.7791C4.99451 17.4144 6.09948 18.6078 6.45307 20.0222C6.58567 20.5525 6.62987 21.1271 6.85086 21.6133C6.85086 21.6133 6.89506 21.6133 6.89506 21.5691C6.36467 20.0664 7.11606 18.652 7.91164 17.4586C8.08843 17.1492 8.22103 16.7956 8.30943 16.3978C8.39783 17.0608 8.22103 17.8564 8.13263 18.5636C7.95584 19.4476 7.64644 20.3315 7.42545 21.2155C7.24865 21.7459 7.29285 22.3647 7.38125 22.9393L7.29285 22.8951C6.71827 21.8343 5.56909 20.9945 5.2597 19.8454C4.99451 19.0056 4.81771 17.9006 4.99451 16.9282Z" fill="white"/>
<path d="M4.95032 20.1106C5.08292 21.8344 6.93927 22.7626 7.82325 24.2211C8.04425 24.5305 8.22105 24.8399 8.48624 25.1051C8.44204 24.9283 8.26524 24.7515 8.22104 24.5747C7.91165 23.956 7.82325 23.2488 7.86745 22.5416C7.95585 21.6576 8.30944 20.8178 8.17685 19.8896C8.92823 21.525 8.70723 23.6024 9.14922 25.3703C9.23762 25.7681 9.50281 26.1217 9.63541 26.4753C8.08845 25.4145 5.9227 24.3979 5.25971 22.4532C4.90612 21.746 4.86192 20.9062 4.95032 20.1106Z" fill="white"/>
<path d="M5.87842 24.1326C6.7624 26.1216 8.92815 26.2542 10.3867 27.4917C10.6519 27.7127 10.9613 27.9337 11.2265 28.0663C10.8729 27.7569 10.5193 27.4033 10.2541 27.0055C9.41434 25.8122 9.67953 24.1326 9.06074 22.8508C9.63533 23.558 10.1657 24.2652 10.5193 25.0608C11.0497 26.3425 11.2265 27.8011 12.4641 28.7735C11.1381 28.3315 9.59113 28.4641 8.44196 27.6685C7.24859 26.8729 6.09941 25.547 5.87842 24.1326Z" fill="white"/>
<path d="M8.13281 27.8014C9.54718 29.3926 11.8013 28.8622 13.6577 29.26C13.9229 29.3042 14.1439 29.3926 14.4533 29.3484C14.2323 29.2158 13.9229 29.2158 13.6577 29.0832C12.1991 28.5528 11.9781 27.0058 11.1825 25.9451C12.1991 26.6081 13.0389 27.5362 13.9671 28.4202C14.6301 28.9948 15.4256 29.26 16.3096 29.4368C16.0886 29.5252 15.8234 29.481 15.6024 29.5252C14.0555 29.923 12.3759 30.4976 10.7406 29.9672C9.72398 29.6578 8.6632 28.818 8.13281 27.8014Z" fill="white"/>
<path d="M27.0941 31.514C25.503 32.0886 23.8676 31.4698 22.63 30.5417C22.1438 30.2323 21.7019 29.7461 21.0389 29.7903C20.8179 29.7903 20.5969 29.7903 20.3759 29.8345C21.5693 30.4091 22.6742 31.1604 23.6908 32.1328C23.514 32.3096 23.293 32.5306 23.072 32.6632C22.0996 31.6024 20.9947 30.5859 19.8013 30.0113C19.5803 30.0555 19.3593 30.1881 19.1383 30.2765C18.1659 30.8953 17.1936 31.6908 16.4422 32.7074L15.8234 32.177C16.84 31.1604 17.9449 30.3649 19.1825 29.7903C17.9891 29.3925 17.1936 30.4091 16.3096 30.9395C15.2488 31.6908 13.746 32.0444 12.4643 31.514C11.7571 31.2488 11.0941 30.8511 10.6079 30.2323C11.6245 30.9395 13.1273 30.9836 14.2764 30.5417C15.8234 29.8787 17.4146 29.0389 19.2709 29.4367C19.5803 29.4367 19.8455 29.7461 20.1107 29.4809C21.4809 29.1273 23.0278 29.3925 24.2212 30.0113L25.4588 30.4975C26.6079 30.9395 28.0665 30.8069 29.0389 30.0997C28.4643 30.8069 27.8013 31.2488 27.0941 31.514Z" fill="white"/>
<path d="M28.7737 29.8786C27.0057 30.5415 25.2377 29.746 23.514 29.4366L23.2046 29.3924C24.0002 29.2156 24.7958 28.9504 25.4587 28.3758C26.3869 27.4476 27.2709 26.5194 28.3317 25.8123C27.5361 26.8288 27.4477 28.2432 26.1659 28.9062C25.8565 29.1272 25.4587 29.1714 25.1051 29.304C25.5913 29.304 25.9891 29.1272 26.4753 29.083C28.1991 28.8178 30.188 29.083 31.4256 27.6244C30.9394 28.641 29.7902 29.525 28.7737 29.8786Z" fill="white"/>
<path d="M29.7457 28.0663C28.8617 28.2873 27.8894 28.3757 27.0054 28.6851C28.5081 27.4034 28.4197 25.4144 29.3921 23.9558C29.7015 23.5139 29.9667 23.0719 30.3203 22.6741C29.7015 23.8674 29.9667 25.4586 29.3037 26.652C29.0385 27.1382 28.6407 27.5802 28.2429 27.9338C28.3755 27.9338 28.5081 27.8012 28.6407 27.7128C29.7899 26.6078 31.2485 26.2542 32.4418 25.3702C32.928 24.9724 33.37 24.4862 33.591 23.9116C33.37 25.768 31.5137 27.4918 29.7457 28.0663Z" fill="white"/>
<path d="M32.0002 24.8839C31.293 25.3259 30.5858 25.7679 29.9229 26.2983V26.2541C30.9394 24.5303 30.4532 22.1878 31.072 20.3314L31.293 19.7126C31.1604 20.8618 31.6908 21.8784 31.6466 23.0718C31.6024 23.779 31.3814 24.3977 30.9836 24.9723H31.0278C31.514 24.3093 31.9118 23.6022 32.5306 22.9834C33.4588 22.0994 34.387 21.2154 34.4753 19.9778C34.8289 21.9668 33.6798 23.7348 32.0002 24.8839Z" fill="white"/>
<path d="M24.0887 24.7514L24.1771 24.663C24.4865 24.3978 24.8401 24.1768 25.1052 23.8674H25.1494C25.1052 23.8674 25.0169 23.9116 24.9285 23.8674C24.7517 23.8232 24.7517 23.6906 24.7517 23.5138L24.0887 22.8508L24.0445 22.7625C24.0003 22.895 23.9119 22.9834 23.8235 23.0718C23.8235 23.1602 23.7793 23.2928 23.9119 23.337C24.1329 23.4254 24.3981 23.558 24.4423 23.779C24.3539 24 23.9119 24.221 24.1771 24.4862C24.2655 24.6188 24.0445 24.663 24.0887 24.7514Z" fill="#0265B5"/>
<path d="M20.3316 16.2211C20.4642 16.3095 20.5084 16.1769 20.641 16.1327C20.7736 16.1327 20.9062 16.2653 20.9946 16.3537C21.083 16.3979 21.1714 16.3537 21.2598 16.3095C21.304 15.8675 21.8786 15.9559 22.0112 15.5139L21.9228 15.5581C21.8786 15.5139 21.7902 15.5139 21.7902 15.4255C21.8786 15.3371 22.0112 15.2045 22.0996 15.1603C21.6134 14.8509 21.1272 14.6299 20.5968 14.4973C20.3758 14.4531 20.1548 14.4531 19.978 14.3647C20.0664 14.6741 19.978 15.1161 20.0664 15.4697L20.42 15.6023C20.5526 15.4255 20.7736 15.3813 20.862 15.2045C20.9504 15.1603 20.9946 15.2045 21.083 15.2487C21.083 15.3813 21.083 15.5139 21.0388 15.6465C20.862 16.0001 20.5084 16.0443 20.3316 16.2211Z" fill="#0265B5"/>
<path d="M25.9451 19.7569C25.7242 20.4641 25.459 21.1271 25.017 21.7459C24.8402 21.9668 24.6634 22.2762 24.4424 22.3646L24.9286 22.8066C24.9728 22.7624 24.9286 22.7182 24.9286 22.7182C24.9286 22.674 24.9728 22.5856 25.017 22.5856C25.238 22.5856 25.238 22.8066 25.3706 22.9392C25.3264 23.1602 25.5032 23.2928 25.459 23.4696C26.7849 22.0552 27.4479 20.3757 27.5805 18.4751L27.6689 18.3867C27.1827 18.4309 26.6965 18.3867 26.2103 18.3867L26.0777 18.3425C26.1219 18.6519 26.0335 18.9613 25.9893 19.2707L26.1661 19.4475C26.2103 19.5359 26.2103 19.6243 26.1219 19.6685C26.0777 19.8453 25.9893 19.8011 25.9451 19.7569Z" fill="#0265B5"/>
<path d="M24.6636 15.1159C24.4868 14.7623 24.2216 14.4971 23.9564 14.1877L23.9122 14.2319C23.426 14.7181 22.8956 15.2485 22.4536 15.7789C22.4978 15.8231 22.542 15.9115 22.5862 15.9115C22.5862 15.7789 22.6746 15.6905 22.6746 15.5579C22.8072 15.3811 22.984 15.5137 23.1608 15.5137C23.426 15.4695 23.647 15.5579 23.9122 15.5579C24.089 15.6463 24.1332 15.9115 24.31 15.9999C24.3542 16.0883 24.31 16.1325 24.2658 16.2209C24.31 16.6187 24.4868 16.1325 24.7078 16.2209C24.7962 16.2651 24.8846 16.2209 24.973 16.3093C25.0172 16.4861 25.194 16.4419 25.194 16.6187C25.194 16.7071 25.1056 16.7071 25.0172 16.7513C25.0614 16.9281 24.8404 17.0165 24.9288 17.1933C25.2382 17.2375 25.2382 16.8839 25.3707 16.7513C25.2823 16.4861 25.2381 16.2209 25.0614 15.9557C24.8846 15.9115 24.7962 15.7347 24.6194 15.6905C24.31 15.5137 24.7078 15.3369 24.6636 15.1159Z" fill="#0265B5"/>
<path d="M19.9778 26.0775C20.3756 25.9449 20.8176 25.9891 21.2596 25.9007C21.1712 25.8565 21.0828 25.8565 21.0386 25.7681C20.7734 25.7681 20.685 25.5029 20.5966 25.2819C20.5524 25.1493 20.6408 25.0167 20.7292 24.8841C20.6408 24.6631 20.2872 24.8399 20.1104 24.7515C20.0662 24.7073 20.022 24.6631 19.9336 24.6189L20.022 24.7515C19.9778 25.1935 20.022 25.6355 19.9778 26.0775Z" fill="#0265B5"/>
<path d="M20.332 21.967C20.4646 22.0112 20.3762 22.1438 20.4646 22.188C20.6856 22.0996 20.8624 22.3647 20.995 22.2322C20.995 21.967 21.2602 22.0112 21.437 21.9228C21.658 21.7902 21.9232 21.6134 21.9232 21.2598L21.879 21.2156C21.7022 21.2156 21.6138 21.3482 21.5254 21.4366C21.3928 21.525 21.3044 21.2598 21.1718 21.3482C21.1718 21.3924 21.216 21.3924 21.216 21.3924C21.2602 21.4366 21.2602 21.525 21.216 21.525C21.0392 21.7018 20.9508 21.4366 20.774 21.4808V21.525C20.774 21.5692 20.774 21.6134 20.7298 21.6134C20.6414 21.4366 20.4204 21.525 20.2878 21.3482C20.1994 21.304 20.1552 21.3482 20.111 21.3924C20.0668 21.4808 19.89 21.3924 19.9342 21.525C19.8016 21.5692 19.8016 21.7018 19.7132 21.7902C19.5364 21.746 19.4922 21.967 19.3154 21.9228C19.3154 21.967 19.3154 22.0112 19.3596 22.0112C19.448 22.0554 19.5364 22.0554 19.669 22.0554C19.8458 21.8786 20.111 22.0996 20.332 21.967Z" fill="#0265B5"/>
<path d="M21.8784 19.9336C21.8784 20.022 21.8784 20.1104 21.9668 20.1988C22.1878 20.1546 22.0994 20.464 22.2762 20.4198C22.3646 20.3756 22.2762 20.2872 22.3204 20.243C22.2762 20.0662 22.1436 20.0662 22.011 19.9778C22.011 19.9336 22.011 19.9336 22.0552 19.8894C21.9668 19.8452 21.9226 19.8894 21.8784 19.9336Z" fill="#0265B5"/>
<path d="M21.6132 12.6854C21.0828 12.5086 20.5082 12.4202 19.9336 12.3318L19.9778 12.4644V13.8788L20.1104 13.8346C20.9944 13.9671 21.79 14.2323 22.4529 14.8069L22.4971 14.8953C22.7181 14.5859 23.0717 14.2765 23.3811 13.9671L23.6463 13.8346L23.5137 13.7904C22.9391 13.3042 22.3203 12.9064 21.6132 12.6854Z" fill="#0265B5"/>
<path d="M11.8892 18.5637L12.0218 19.5361C12.066 19.8897 12.2428 20.2875 12.1986 20.6411C12.2428 20.5527 12.1986 20.4201 12.3754 20.3759C12.3312 20.2433 12.4638 20.1549 12.3754 20.0665C12.4196 19.8013 12.4638 19.5361 12.6848 19.3593C12.95 19.3593 12.9942 19.0057 13.2593 18.9615C13.3919 18.9615 13.4803 19.1383 13.5245 19.1825C13.3477 18.9615 13.3477 18.6521 13.3919 18.4312L13.2593 18.4754C12.7732 18.4754 12.2428 18.5196 11.8008 18.4312L11.8892 18.5637Z" fill="#0265B5"/>
<path d="M21.3045 20.9942C21.4371 20.8616 21.7022 20.8616 21.7022 20.6848C21.5254 20.6406 21.4371 20.7732 21.3045 20.8616C21.2603 20.9058 21.2161 20.9942 21.3045 20.9942Z" fill="#0265B5"/>
<path d="M24.6191 18.3865L24.7959 18.5633C24.9727 18.6959 24.8401 18.9169 25.0169 19.0053C25.2379 19.0937 25.2821 19.3589 25.3705 19.5356C25.4147 19.4915 25.4147 19.4473 25.4147 19.4031C25.5031 19.0937 25.4589 18.7843 25.5473 18.5191C25.2821 18.4749 24.8843 18.4749 24.6191 18.3865Z" fill="#0265B5"/>
<path d="M22.497 22.0554C22.6738 22.0996 22.8064 22.3206 23.0274 22.2764C23.2042 22.188 23.5136 22.3206 23.6461 22.1438C23.6461 21.967 23.7787 21.7902 23.8671 21.6576H23.9113C23.9997 21.746 23.9997 21.9228 24.0439 22.0554C24.1765 21.8786 24.3091 21.746 24.4417 21.5692C24.7953 21.083 25.0605 20.5084 25.1931 19.9338C25.0605 19.9338 24.9279 19.978 24.7953 20.0222C24.6627 20.0222 24.4417 20.1106 24.3091 19.978C24.2649 19.9338 24.2207 19.978 24.2207 20.0222C24.1765 20.1106 24.1323 20.199 23.9997 20.1548C23.9113 20.1106 23.9113 20.0222 23.8671 19.9338C23.8671 19.978 23.8671 20.0664 23.8229 20.1106C23.7345 20.2432 23.6903 20.3316 23.602 20.4642C23.5136 20.5968 23.2926 20.5526 23.2042 20.641C23.2042 20.9062 22.8948 20.862 22.7622 20.9062C22.7622 20.9504 22.8064 20.9504 22.8064 20.9504C22.8948 20.9504 22.9832 20.9504 23.0274 20.9062C23.2484 20.9504 23.2042 20.6852 23.3368 20.5968C23.4252 20.5968 23.5578 20.5084 23.6461 20.5526C23.7787 20.6852 23.7787 20.9062 23.7787 21.083C23.6461 21.2156 23.7345 21.3924 23.6461 21.5692C23.6461 21.746 23.4694 21.8344 23.4694 22.0112C23.381 22.0996 23.2926 22.0996 23.16 22.0996C22.7622 21.9228 22.3202 21.8344 21.834 21.7902C21.7898 21.7902 21.7456 21.8344 21.7898 21.8786C22.055 21.967 22.3202 21.967 22.497 22.0554Z" fill="#0265B5"/>
<path d="M19.3588 26.6519L19.403 26.5635L19.2262 26.6077C17.1931 26.4751 15.3809 25.7237 13.8782 24.3093V24.3535L12.8174 25.4585C14.4527 26.8729 16.3091 27.801 18.4307 28.0662C18.7842 28.1104 19.1378 28.1104 19.4914 28.1988L19.403 28.0662V26.6519H19.3588Z" fill="#0265B5"/>
<path d="M17.2378 20.9948C17.8124 21.4368 18.4312 21.7462 19.1383 21.8788C19.1825 21.7462 19.1384 21.5694 19.1825 21.4368C19.2267 21.3042 19.3593 21.3042 19.4919 21.3484C19.5361 21.3484 19.5803 21.26 19.5361 21.2158C19.4035 21.1716 19.4477 21.039 19.4035 20.9064C19.4035 20.8623 19.4919 20.8623 19.4919 20.8181C19.4035 20.7297 19.5361 20.6413 19.4477 20.5529C19.4919 20.5529 19.4919 20.5087 19.5361 20.4645C19.2267 20.5971 18.8732 20.4203 18.608 20.2877C18.4754 20.1993 18.2544 20.1109 18.2544 19.9783C17.9892 20.2877 17.5914 20.6413 17.2378 20.9948Z" fill="#0265B5"/>
<path d="M16.7072 19.3589C16.663 19.3147 16.663 19.3589 16.6188 19.4031C16.5746 19.4031 16.5746 19.4031 16.5304 19.4031C16.5304 19.0937 16.1768 19.2705 16.0884 19.1379C16.221 19.4031 16.3094 19.7125 16.4862 19.9777C16.5746 20.1987 16.7956 20.4197 16.884 20.6407C16.9724 20.4639 17.1934 20.2871 17.326 20.1103C17.326 20.0219 17.3259 19.9777 17.2818 19.8893C17.2376 19.7567 17.2818 19.6241 17.1934 19.5357C17.0608 19.5799 17.2376 19.7125 17.1934 19.8009C17.1492 19.8451 17.0608 19.8009 17.0608 19.7567C16.9282 19.7567 16.8398 19.6241 16.7956 19.5357C16.884 19.4473 16.7514 19.4031 16.7072 19.3589Z" fill="#0265B5"/>
<path d="M17.7239 19.4917C17.6797 19.6243 17.5913 19.7569 17.5029 19.8453C17.6355 19.7569 17.7239 19.5801 17.9007 19.5801L17.7239 19.4917Z" fill="#0265B5"/>
<path d="M19.2701 24.6184C17.9884 24.5742 16.8834 24.0881 15.8668 23.3367C15.911 23.4693 16.0436 23.5577 15.9994 23.6903C15.911 23.8229 15.7342 23.8229 15.6016 23.8229C15.2922 23.7787 15.0712 23.9997 14.806 24.0439C14.5408 24.1323 14.4524 23.8229 14.2314 23.8229C15.69 25.1046 17.3696 25.9002 19.3143 25.9886L19.4469 26.077L19.4027 25.9002V24.53L19.2701 24.6184Z" fill="#0265B5"/>
<path d="M13.5695 23.9116C13.3927 23.779 13.2159 23.6022 13.0833 23.4254C12.9065 23.3812 12.7297 23.2486 12.6413 23.0718C12.5971 23.0276 12.6413 22.895 12.5971 22.8508L12.5529 22.9392C12.3761 23.0276 12.2877 22.8508 12.1551 22.7624C11.9783 22.674 12.0667 22.3646 11.8457 22.4088C11.7573 22.4088 11.7573 22.3204 11.6689 22.2762C11.4479 22.2762 11.4037 22.0552 11.3153 21.9668C11.3153 22.011 11.3153 22.0552 11.2711 22.0994C11.0501 22.1436 11.0059 21.8784 10.8291 21.79C10.7849 21.79 10.7849 21.8342 10.6965 21.8342C10.5639 21.7459 10.4755 21.5691 10.4755 21.3923C10.2987 21.2155 10.3871 20.9061 10.4313 20.6409C10.4755 20.5967 10.5639 20.5525 10.5197 20.4641C10.5639 20.3757 10.6965 20.3315 10.7849 20.3315C10.8291 20.3315 10.8733 20.3757 10.8733 20.4199C10.9617 20.3757 11.0943 20.4199 11.0501 20.2873C11.1385 20.1989 11.2711 20.1989 11.4037 20.1547C11.4921 20.2431 11.5363 20.3757 11.6247 20.4641L11.5363 20.3315C11.4037 19.8011 11.3153 19.2707 11.2711 18.7403C11.2711 18.6961 11.2269 18.6961 11.2269 18.6519C11.2269 18.5193 11.2269 18.4309 11.2269 18.3425L11.0943 18.3867H9.63574C9.72414 20.0663 10.1661 21.6133 10.9175 22.9834C11.2711 23.6906 11.8457 24.3094 12.3319 24.9282L13.3927 23.8674L13.5695 23.9116Z" fill="#0265B5"/>
<path d="M15.2487 11.6688C14.9394 11.8897 14.63 12.1991 14.2764 12.3759C14.6742 12.6411 14.9836 13.0389 15.3371 13.3483L15.3813 13.4367C16.2653 12.5969 17.3703 12.0665 18.5195 11.8455C18.7847 11.8013 19.0941 11.713 19.3593 11.8014C19.3593 11.3152 19.3151 10.7848 19.3593 10.2986C17.8565 10.387 16.4863 10.829 15.2487 11.6688Z" fill="#0265B5"/>
<path d="M14.0105 17.1493C13.9663 17.4145 13.9663 17.6797 13.8779 17.9449C14.0547 17.8565 14.3199 17.9007 14.5409 17.9007C14.4083 17.8565 14.5409 17.6797 14.4525 17.5913C14.4525 17.4587 14.4083 17.2819 14.5409 17.1935C14.5409 16.9725 14.7619 16.8841 14.7619 16.6631C14.8061 16.4421 15.0713 16.5747 15.2039 16.4863C15.2923 16.4421 15.2039 16.3537 15.2039 16.3095C15.2923 16.1769 15.4691 16.1769 15.6017 16.0885C15.6901 15.9559 15.8227 15.8233 15.9553 15.7349C16.2647 15.7349 16.2647 15.293 16.5741 15.293C16.1763 14.9836 15.7785 14.5858 15.4249 14.2322C14.7177 15.1162 14.1873 16.0443 14.0105 17.1493Z" fill="#0265B5"/>
<path d="M14.1881 19.2709C14.1881 19.1825 14.0555 19.1383 14.0555 19.0499C14.1439 18.8731 14.0555 18.5195 14.3207 18.4754C14.1439 18.5195 13.9671 18.5637 13.8345 18.4312L13.9229 18.5637C13.9229 18.9173 14.0555 19.2267 14.0113 19.5803C14.0555 19.4919 14.0997 19.3593 14.1881 19.2709Z" fill="#0265B5"/>
<path d="M13.9231 12.8176L13.3485 13.5248C12.4203 14.8066 11.9783 16.2652 11.8457 17.9005L13.3043 17.8563L13.4369 17.9005C13.3927 17.8563 13.3927 17.8121 13.3927 17.7679C13.5253 16.2652 14.0557 14.9392 15.0722 13.8342C14.6744 13.4806 14.3208 13.127 13.9673 12.7292L13.9231 12.8176Z" fill="#0265B5"/>
<path d="M18.3426 22.6299C18.4752 22.4973 18.6078 22.4089 18.7404 22.3647C18.2542 22.4531 17.8564 22.1437 17.4586 21.9227C17.2376 21.7901 16.9282 21.6575 16.7956 21.3923C16.4862 21.7901 16.1327 22.1437 15.7349 22.4531C15.9117 22.4531 16.0001 22.6299 16.1327 22.7183C16.9282 23.3813 17.9006 23.6907 18.8288 23.9117L18.5636 23.8233C18.3868 23.6023 18.1216 23.3371 18.0774 23.0719C18.2984 22.9835 18.2984 22.7625 18.3426 22.6299Z" fill="#0265B5"/>
<path d="M14.7628 18.4751L14.7186 18.7403C14.6744 18.9171 14.4534 18.7845 14.365 18.8729C14.2766 18.9613 14.365 19.0939 14.4092 19.1823C14.2766 19.5359 14.7628 19.6243 14.7186 19.9337C14.8512 20.1105 14.7186 20.3756 14.8954 20.5524C14.9396 20.906 14.8512 21.348 15.1606 21.6132L15.2048 21.9226C15.249 22.1436 14.9396 22.0994 14.9838 22.2762C15.028 22.232 15.0722 22.3204 15.0722 22.3646C15.4699 21.8784 15.9561 21.3922 16.4423 20.9944L16.2655 20.7734C15.9119 20.1988 15.6025 19.6243 15.4699 18.9613L15.3374 18.8729C15.3374 19.0497 15.249 19.1823 15.249 19.3591L15.2048 19.4033C15.1164 19.4033 15.028 19.3149 14.9396 19.2707C14.9396 19.2265 14.8512 19.1381 14.9396 19.0497C14.9838 19.0497 15.028 19.0497 15.0722 19.0939C15.1164 19.0497 15.1164 18.9613 15.1164 18.8729C15.1164 18.7403 15.028 18.6519 15.1164 18.5193C15.2048 18.5193 15.2932 18.6077 15.3374 18.6961C15.4257 18.7403 15.5141 18.6519 15.6025 18.6077C15.6025 18.5193 15.7351 18.3867 15.6025 18.3425C15.6909 18.1215 15.6025 17.9005 15.6025 17.7237C15.4699 17.6353 15.249 17.6795 15.1164 17.6795C14.6744 17.8121 15.2048 18.1215 15.0722 18.3867C15.028 18.5635 14.8512 18.3867 14.7628 18.4751Z" fill="#0265B5"/>
<path d="M28.199 18.4307L28.1106 18.3865L28.1548 18.5191C28.0664 20.287 27.4918 21.7898 26.4752 23.2042C26.2984 23.4252 26.1216 23.7346 25.8564 23.8671C26.2542 24.1765 26.6962 24.6627 27.0056 25.0163L27.0498 24.9279C28.641 23.1158 29.5692 20.95 29.6576 18.5191L29.7018 18.3865L29.6134 18.4307H28.199Z" fill="#0265B5"/>
<path d="M13.9668 12.0221L14.011 11.9337C15.558 10.5193 17.3259 9.76793 19.3591 9.67953L19.3149 9.54694V8.26517L19.3591 8.13257C17.2375 8.22097 15.3812 8.92815 13.7016 10.1215C13.3922 10.3425 13.0828 10.6961 12.7734 10.8729H12.8176C13.2154 11.1823 13.6132 11.6243 13.9668 12.0221Z" fill="#0265B5"/>
<path d="M19.3155 12.376C17.9895 12.4644 16.8403 13.039 15.8237 13.8788C16.2215 14.1439 16.5751 14.5859 16.9287 14.9395C16.9729 14.8953 16.9729 14.8511 17.0171 14.8069C17.5033 14.4533 18.0337 14.1439 18.6083 13.9671C18.8735 13.923 19.1387 13.8346 19.4038 13.8788C19.3596 13.3926 19.3596 12.818 19.4038 12.3318L19.3155 12.376Z" fill="#0265B5"/>
<path d="M19.3591 14.4534C18.5193 14.586 17.7238 14.8512 17.105 15.5141H17.2376C17.3702 15.6467 17.547 15.6025 17.6796 15.7793C17.7238 15.8677 17.5912 15.8677 17.5912 15.9561C17.6354 16.0003 17.6354 16.0003 17.6796 16.0003C17.768 16.0445 17.768 15.9561 17.8122 15.9119C17.9448 15.7793 17.9448 16.0445 18.0774 16.0445C18.1658 16.0003 18.2984 16.0003 18.3426 16.0887C18.4309 16.0003 18.6077 16.0887 18.6519 15.9561C18.8287 15.7793 18.7403 15.5141 18.9613 15.4257C19.0497 15.4699 18.9613 15.5583 19.0055 15.6467C19.1823 15.7351 19.3591 15.5141 19.4917 15.6909C19.3149 15.249 19.3591 14.807 19.3591 14.4534Z" fill="#0265B5"/>
<path d="M19.4477 16.7958C19.2709 17.061 19.05 17.1052 18.7848 17.1936C18.6964 17.282 18.7406 17.4587 18.5638 17.4587C18.5196 17.5913 18.3428 17.6355 18.387 17.8123C18.2986 17.9891 18.3428 18.2101 18.2986 18.4311C17.9892 18.6079 18.0776 18.1659 17.9008 18.0775L17.8566 18.1217C17.8124 18.1217 17.7682 18.1217 17.724 18.0775C17.6798 18.0775 17.5914 18.0333 17.5472 18.0775C17.4588 18.2101 17.3704 18.2985 17.4146 18.4311C17.3704 18.5195 17.2378 18.4753 17.2378 18.6079C17.4146 18.6079 17.5914 18.5637 17.7682 18.5195C17.9008 18.5637 17.9892 18.4753 18.1218 18.4753C18.166 18.4753 18.2102 18.5195 18.2102 18.6079H18.2544C18.3428 18.5637 18.387 18.4311 18.3428 18.3427C18.3428 18.2101 18.4754 18.2101 18.5638 18.2101C18.6522 18.2543 18.608 18.2985 18.608 18.3427C18.829 18.4311 18.5638 18.6079 18.5196 18.7405C18.4754 18.8289 18.5196 19.0499 18.3428 19.0499C18.2986 19.0499 18.2986 19.0057 18.2986 18.9615H18.2544C18.2544 19.0499 18.2986 19.1825 18.387 19.1825C18.5196 19.0499 18.5196 18.8731 18.7406 18.8289C18.829 18.6963 18.6964 18.5195 18.8732 18.4311C19.1383 18.4311 19.4477 18.2985 19.6687 18.5195C19.6687 18.6079 19.6245 18.6521 19.7129 18.7405C19.6687 18.8731 19.6245 19.0057 19.5361 19.0941C19.5803 19.1825 19.5361 19.2267 19.4919 19.3151C19.4035 19.6245 19.05 19.4919 18.829 19.5803C19.1383 19.8455 19.5361 19.9339 19.9781 19.8897C20.1991 19.8897 20.1107 19.5803 20.1991 19.4919C20.2875 19.1383 20.5969 19.3593 20.8179 19.2709C20.9063 19.0941 20.9947 18.9615 20.9947 18.7847C20.7737 18.6963 20.7295 18.5637 20.7737 18.3869C20.6853 18.2543 20.6853 18.0333 20.5085 18.0333C20.4643 17.9891 20.5085 17.9449 20.5527 17.9007C20.5527 17.7681 20.6411 17.7681 20.6853 17.6355C20.5527 17.5471 20.5969 17.3703 20.5969 17.2819C20.3759 17.3261 20.3759 17.061 20.1991 17.0168C20.1549 16.8842 20.0223 16.8842 19.9339 16.84C19.6687 16.9726 19.6245 16.6632 19.4477 16.5748C19.4477 16.5306 19.4035 16.4422 19.4477 16.398C19.5361 16.3096 19.6687 16.398 19.7571 16.398L19.6687 16.3538C19.5803 16.2654 19.4035 16.3096 19.2709 16.3538C19.4035 16.4864 19.3593 16.6632 19.4477 16.7958Z" fill="#0265B5"/>
<path d="M11.3151 17.9004L11.2709 17.6794C11.3592 15.9998 11.8896 14.4971 12.862 13.1711C13.083 12.9059 13.2598 12.5523 13.5692 12.3755C13.2156 12.0661 12.862 11.6683 12.5084 11.3147L12.4642 11.1821C10.9615 12.8617 10.0333 14.7622 9.76809 16.928C9.72389 17.2374 9.76809 17.5468 9.67969 17.9004C10.2543 17.8562 10.8289 17.8562 11.3151 17.9004Z" fill="#0265B5"/>
<path d="M25.5468 24.177C25.4142 24.4864 25.0607 24.6632 24.8397 24.8842C24.4861 25.2378 23.9557 25.282 23.7789 25.8124C23.6021 25.9892 23.5137 26.2544 23.2927 26.3428C23.2043 26.6079 22.9391 26.5637 22.7623 26.7405C22.3203 27.1383 22.0551 26.4753 21.6573 26.4311L20.8618 26.5637C20.5966 26.5637 20.2872 26.6521 20.022 26.5637C20.0662 27.0941 20.0662 27.6687 20.022 28.1991L20.1104 28.1549C22.6297 28.0665 24.8397 27.0941 26.696 25.3704L25.5468 24.3096V24.177Z" fill="#0265B5"/>
<path d="M19.9778 9.54695C19.9778 9.50276 19.9778 9.45856 20.022 9.41436C20.1104 9.37016 20.1546 9.41436 20.1988 9.50276C20.1988 9.59115 20.243 9.72375 20.1546 9.72375C20.1988 9.72375 20.243 9.67955 20.2872 9.67955C21.4806 9.76795 22.5855 10.1215 23.6021 10.6961V10.6519C23.8231 10.5635 24.0883 10.4309 24.2651 10.6077C24.5303 10.5193 24.5745 10.8287 24.7513 10.8729C25.0165 11.0055 25.2817 11.3149 25.3259 11.5801C25.3701 11.6685 25.5027 11.7569 25.5469 11.8453C25.7237 11.4917 26.0331 11.2265 26.3424 10.9171L26.5192 10.8287C24.9281 9.32596 23.0275 8.48618 20.9502 8.17679C20.5966 8.13259 20.243 8.13259 19.9336 8.04419C20.022 8.53038 19.9778 9.06077 19.9778 9.54695Z" fill="#0265B5"/>
<path d="M19.978 11.8011C20.199 11.7127 20.3758 11.8011 20.5968 11.8011C21.6134 11.9779 22.5858 12.2873 23.4255 12.9503C23.3371 12.8619 23.2046 12.7293 23.2046 12.5525C23.2046 12.5525 23.2488 12.5083 23.2488 12.5525C23.2488 12.3757 23.072 12.2873 23.072 12.1547C23.1162 12.1105 23.1162 12.1105 23.2046 12.1105C23.3813 12.2873 23.5139 12.4641 23.6465 12.6409C23.7791 12.5967 23.8675 12.6851 23.9559 12.7293C24.0885 12.8177 24.0001 12.9945 24.1327 13.1271C24.1327 13.4365 24.5305 13.6133 24.5305 13.9227C24.5305 14.0111 24.6189 13.9227 24.6631 13.9669L24.9725 14.3647C24.9283 14.4531 24.9725 14.5415 25.0167 14.5857C25.1493 14.6299 25.2377 14.4531 25.3703 14.4973C25.5913 14.6299 25.3261 14.7625 25.3703 14.8951C25.4587 14.8951 25.5471 14.8509 25.6355 14.8951C25.6797 15.0276 25.5471 15.0718 25.5029 15.1602C25.5029 15.2928 25.5913 15.2486 25.6797 15.2928C25.7681 15.2928 25.8123 15.4254 25.8123 15.4696C26.0775 15.7348 25.7239 16.0442 25.8565 16.3094C25.9449 16.4862 25.8565 16.663 25.7239 16.8398C25.7239 17.0608 25.5029 17.1934 25.4587 17.4144L25.1935 17.4586C25.0609 17.5912 25.3261 17.768 25.1935 17.8564H25.7681L25.7239 17.8122C25.6355 17.5912 25.6797 17.2818 25.8123 17.0608C25.9007 16.884 25.9007 16.663 26.0775 16.4862C26.1217 16.4862 26.1659 16.3978 26.2101 16.4862C26.2101 16.663 26.2101 16.884 26.1217 17.0166C26.2985 17.2376 26.2543 17.5912 26.2985 17.8564C26.8289 17.8122 27.3151 17.8122 27.8454 17.8122L27.8012 17.7238C27.7129 16.7514 27.5361 15.8232 27.1383 14.9835C27.0499 14.9835 26.9615 15.0718 26.8289 15.0276C26.7847 15.0276 26.7405 14.9835 26.7847 14.9393C26.5637 14.7183 26.4311 14.4973 26.2101 14.2763C25.9449 14.3205 25.8123 14.0111 25.5913 13.9669C25.3703 13.8785 25.5029 13.5249 25.1935 13.6133C25.0609 13.5691 24.8841 13.4365 24.8841 13.2597C24.8841 12.9945 24.8399 12.6851 24.5747 12.5083C24.3979 12.4199 24.3095 12.6851 24.1327 12.6409C24.0443 12.5967 24.0885 12.4641 24.0443 12.3757C24.0001 12.2873 23.9117 12.2431 23.9559 12.1547C24.2211 11.8453 23.6465 11.8453 23.7791 11.5359C23.7349 11.3149 23.5139 11.2265 23.3813 11.0497C22.5858 10.6961 21.746 10.431 20.8178 10.2984C20.5968 10.2542 20.3758 10.2984 20.199 10.21L20.2432 10.2984C19.978 10.8287 20.0222 11.3591 19.978 11.8011Z" fill="#0265B5"/>
<path d="M25.6792 12.3316C25.8118 12.3758 25.8118 12.5084 25.9002 12.5526C26.298 12.7735 26.3864 13.1713 26.74 13.3923C26.9168 13.7901 27.3588 14.0995 27.3588 14.5415C27.8008 15.5581 28.1101 16.6189 28.1543 17.8122L28.1101 17.8564C28.1543 17.8564 28.1985 17.8564 28.2427 17.8122L29.7455 17.768C29.6571 17.6354 29.7013 17.4144 29.6571 17.2376C29.4361 14.8951 28.4637 12.9061 26.9168 11.1382C26.6074 11.536 26.2538 11.8896 25.856 12.2432L25.6792 12.3316Z" fill="#0265B5"/>
<path d="M20.1548 9.28157C20.199 9.19317 20.3316 9.23737 20.3758 9.23737L21.1272 8.92798C21.4366 8.97218 21.7459 8.97218 21.9669 9.23737V9.28157C21.7901 9.45837 21.525 9.54676 21.304 9.45837C20.9504 9.54676 20.4642 9.72356 20.199 9.36997C20.1548 9.36997 20.1548 9.32577 20.1548 9.28157Z" fill="white"/>
<path d="M24.6634 10.2544C24.7518 10.2986 24.8844 10.3428 24.8844 10.4312C24.8402 10.5638 24.9728 10.6522 24.9286 10.7406C24.6634 10.829 24.6192 10.4754 24.3982 10.4312C24.354 10.387 24.354 10.3428 24.354 10.2986C24.4866 10.166 24.575 10.3428 24.6634 10.2544Z" fill="white"/>
<path d="M77.022 36.49C80.508 36.49 82.335 34.537 83.238 32.731L80.13 31.261C79.668 32.374 78.471 33.298 77.022 33.298C74.838 33.298 73.221 31.534 73.221 29.245C73.221 26.956 74.838 25.192 77.022 25.192C78.471 25.192 79.668 26.116 80.13 27.229L83.238 25.759C82.314 23.911 80.508 22 77.022 22C72.822 22 69.546 24.919 69.546 29.245C69.546 33.55 72.822 36.49 77.022 36.49ZM84.926 29.245C84.926 33.508 88.139 36.49 92.423 36.49C96.707 36.49 99.899 33.508 99.899 29.245C99.899 24.982 96.707 22 92.423 22C88.139 22 84.926 24.982 84.926 29.245ZM96.224 29.245C96.224 31.513 94.733 33.298 92.423 33.298C90.092 33.298 88.601 31.513 88.601 29.245C88.601 26.956 90.092 25.192 92.423 25.192C94.733 25.192 96.224 26.956 96.224 29.245ZM105.928 36.238H110.464L115.756 22.231H111.661L108.196 32.332L104.752 22.231H100.657L105.928 36.238ZM117.631 36.238H121.243V22.231H117.631V36.238ZM124.602 36.238H130.503C134.892 36.238 138.063 33.571 138.063 29.224C138.063 24.877 134.892 22.231 130.482 22.231H124.602V36.238ZM128.214 33.088V25.381H130.503C133.065 25.381 134.367 27.061 134.367 29.224C134.367 31.303 132.939 33.088 130.482 33.088H128.214ZM140.07 32.5H145.11V29.791H140.07V32.5ZM151.091 36.238H154.703V22.231H151.574L146.681 27.061L148.739 29.224L151.091 26.851V36.238ZM158.027 35.125C159.077 35.965 160.631 36.469 162.269 36.469C166.511 36.469 169.199 33.676 169.199 29.224C169.199 25.192 167.267 22 162.836 22C159.581 22 157.25 24.037 157.25 26.914C157.25 29.896 159.602 31.471 162.122 31.471C163.529 31.471 164.852 30.778 165.545 29.854V30.022C165.545 31.933 164.201 33.403 162.269 33.403C161.135 33.403 160.358 33.109 159.581 32.479L158.027 35.125ZM165.545 27.565C164.936 28.174 164.075 28.51 163.193 28.51C162.059 28.51 160.925 28.006 160.925 26.746C160.925 25.927 161.66 25.066 163.004 25.066C164.768 25.066 165.461 26.41 165.545 27.565Z" fill="#082753"/>
<path d="M74.896 53.238H71.248V42.566H74.896C76.528 42.566 77.8453 43.0727 78.848 44.086C79.8613 45.0993 80.368 46.374 80.368 47.91C80.368 49.4567 79.8613 50.7313 78.848 51.734C77.8453 52.7367 76.528 53.238 74.896 53.238ZM74.896 52.054C76.1547 52.054 77.152 51.6593 77.888 50.87C78.624 50.0807 78.992 49.094 78.992 47.91C78.992 46.7153 78.6293 45.7233 77.904 44.934C77.1787 44.1447 76.176 43.75 74.896 43.75H72.576V52.054H74.896ZM88.4351 53.238H87.2351V52.358C86.5845 53.0727 85.7311 53.43 84.6751 53.43C83.9605 53.43 83.3311 53.2007 82.7871 52.742C82.2431 52.2833 81.9711 51.6593 81.9711 50.87C81.9711 50.0593 82.2378 49.4353 82.7711 48.998C83.3151 48.55 83.9498 48.326 84.6751 48.326C85.7738 48.326 86.6271 48.678 87.2351 49.382V47.99C87.2351 47.478 87.0538 47.078 86.6911 46.79C86.3285 46.502 85.8591 46.358 85.2831 46.358C84.3765 46.358 83.5871 46.7153 82.9151 47.43L82.3551 46.598C83.1765 45.7447 84.2058 45.318 85.4431 45.318C86.3285 45.318 87.0485 45.5313 87.6031 45.958C88.1578 46.3847 88.4351 47.0407 88.4351 47.926V53.238ZM85.1071 52.566C86.0671 52.566 86.7765 52.246 87.2351 51.606V50.15C86.7765 49.51 86.0671 49.19 85.1071 49.19C84.5525 49.19 84.0938 49.35 83.7311 49.67C83.3791 49.9793 83.2031 50.3847 83.2031 50.886C83.2031 51.3767 83.3791 51.782 83.7311 52.102C84.0938 52.4113 84.5525 52.566 85.1071 52.566ZM92.7926 53.43C92.2273 53.43 91.8006 53.2753 91.5126 52.966C91.2246 52.6567 91.0806 52.2087 91.0806 51.622V46.566H89.8006V45.51H91.0806V43.398H92.2806V45.51H93.8486V46.566H92.2806V51.366C92.2806 51.6647 92.3446 51.9047 92.4726 52.086C92.6113 52.2673 92.8086 52.358 93.0646 52.358C93.4166 52.358 93.6886 52.2513 93.8806 52.038L94.2326 52.934C93.8806 53.2647 93.4006 53.43 92.7926 53.43ZM101.576 53.238H100.376V52.358C99.7251 53.0727 98.8718 53.43 97.8158 53.43C97.1011 53.43 96.4718 53.2007 95.9278 52.742C95.3838 52.2833 95.1118 51.6593 95.1118 50.87C95.1118 50.0593 95.3784 49.4353 95.9118 48.998C96.4558 48.55 97.0904 48.326 97.8158 48.326C98.9144 48.326 99.7678 48.678 100.376 49.382V47.99C100.376 47.478 100.194 47.078 99.8318 46.79C99.4691 46.502 98.9998 46.358 98.4238 46.358C97.5171 46.358 96.7278 46.7153 96.0558 47.43L95.4958 46.598C96.3171 45.7447 97.3464 45.318 98.5838 45.318C99.4691 45.318 100.189 45.5313 100.744 45.958C101.298 46.3847 101.576 47.0407 101.576 47.926V53.238ZM98.2478 52.566C99.2078 52.566 99.9171 52.246 100.376 51.606V50.15C99.9171 49.51 99.2078 49.19 98.2478 49.19C97.6931 49.19 97.2344 49.35 96.8718 49.67C96.5198 49.9793 96.3438 50.3847 96.3438 50.886C96.3438 51.3767 96.5198 51.782 96.8718 52.102C97.2344 52.4113 97.6931 52.566 98.2478 52.566ZM109.482 53.238H108.154V42.566H115.146V43.75H109.482V47.19H115.034V48.374H109.482V53.238ZM123.319 53.238H122.119V52.15C121.799 52.5127 121.394 52.8167 120.903 53.062C120.423 53.3073 119.911 53.43 119.367 53.43C117.724 53.43 116.903 52.6087 116.903 50.966V45.51H118.103V50.598C118.103 51.238 118.247 51.6913 118.535 51.958C118.834 52.2247 119.266 52.358 119.831 52.358C120.279 52.358 120.711 52.246 121.127 52.022C121.554 51.798 121.884 51.5207 122.119 51.19V45.51H123.319V53.238ZM127.668 53.43C127.102 53.43 126.676 53.2753 126.388 52.966C126.1 52.6567 125.956 52.2087 125.956 51.622V46.566H124.676V45.51H125.956V43.398H127.156V45.51H128.724V46.566H127.156V51.366C127.156 51.6647 127.22 51.9047 127.348 52.086C127.486 52.2673 127.684 52.358 127.94 52.358C128.292 52.358 128.564 52.2513 128.756 52.038L129.108 52.934C128.756 53.2647 128.276 53.43 127.668 53.43ZM136.835 53.238H135.635V52.15C135.315 52.5127 134.909 52.8167 134.419 53.062C133.939 53.3073 133.427 53.43 132.883 53.43C131.24 53.43 130.419 52.6087 130.419 50.966V45.51H131.619V50.598C131.619 51.238 131.763 51.6913 132.051 51.958C132.349 52.2247 132.781 52.358 133.347 52.358C133.795 52.358 134.227 52.246 134.643 52.022C135.069 51.798 135.4 51.5207 135.635 51.19V45.51H136.835V53.238ZM140.431 53.238H139.231V45.51H140.431V46.758C141.146 45.8193 142.005 45.35 143.007 45.35V46.582C142.869 46.55 142.709 46.534 142.527 46.534C142.165 46.534 141.77 46.662 141.343 46.918C140.917 47.174 140.613 47.4567 140.431 47.766V53.238ZM148.001 53.43C146.849 53.43 145.905 53.0567 145.169 52.31C144.433 51.5527 144.065 50.5713 144.065 49.366C144.065 48.2353 144.427 47.2807 145.153 46.502C145.878 45.7127 146.785 45.318 147.873 45.318C149.014 45.318 149.915 45.7127 150.577 46.502C151.249 47.2807 151.585 48.2673 151.585 49.462V49.766H145.329C145.382 50.5233 145.659 51.158 146.161 51.67C146.662 52.182 147.313 52.438 148.113 52.438C149.073 52.438 149.867 52.1127 150.497 51.462L151.073 52.246C150.283 53.0353 149.259 53.43 148.001 53.43ZM150.401 48.886C150.39 48.2247 150.166 47.6327 149.729 47.11C149.291 46.5767 148.667 46.31 147.857 46.31C147.089 46.31 146.481 46.5713 146.033 47.094C145.595 47.6167 145.361 48.214 145.329 48.886H150.401ZM155.976 53.43C154.664 53.43 153.624 53.0247 152.856 52.214L153.48 51.35C153.747 51.6593 154.109 51.9207 154.568 52.134C155.037 52.3473 155.523 52.454 156.024 52.454C156.6 52.454 157.048 52.3313 157.368 52.086C157.688 51.8407 157.848 51.5207 157.848 51.126C157.848 50.7847 157.683 50.518 157.352 50.326C157.021 50.1233 156.621 49.974 156.152 49.878C155.693 49.7713 155.229 49.654 154.76 49.526C154.291 49.3873 153.891 49.158 153.56 48.838C153.229 48.5073 153.064 48.0753 153.064 47.542C153.064 46.9127 153.32 46.3847 153.832 45.958C154.355 45.5313 155.059 45.318 155.944 45.318C157.107 45.318 158.061 45.6913 158.808 46.438L158.248 47.27C157.704 46.6193 156.936 46.294 155.944 46.294C155.421 46.294 155.005 46.4113 154.696 46.646C154.387 46.87 154.232 47.158 154.232 47.51C154.232 47.8193 154.397 48.0647 154.728 48.246C155.059 48.4167 155.459 48.5553 155.928 48.662C156.397 48.758 156.861 48.8753 157.32 49.014C157.789 49.1527 158.189 49.398 158.52 49.75C158.851 50.0913 159.016 50.5393 159.016 51.094C159.016 51.7767 158.749 52.3367 158.216 52.774C157.683 53.2113 156.936 53.43 155.976 53.43ZM166.467 53.238H165.139V42.566H169.427C170.461 42.566 171.277 42.8753 171.875 43.494C172.472 44.1127 172.771 44.8753 172.771 45.782C172.771 46.6887 172.467 47.4513 171.859 48.07C171.261 48.6887 170.451 48.998 169.427 48.998H166.467V53.238ZM169.267 47.814C169.896 47.814 170.408 47.6273 170.803 47.254C171.197 46.87 171.395 46.3793 171.395 45.782C171.395 45.1847 171.197 44.6993 170.803 44.326C170.408 43.942 169.896 43.75 169.267 43.75H166.467V47.814H169.267ZM175.681 53.238H174.481V42.566H175.681V53.238ZM184.107 53.238H182.907V52.358C182.256 53.0727 181.403 53.43 180.347 53.43C179.632 53.43 179.003 53.2007 178.459 52.742C177.915 52.2833 177.643 51.6593 177.643 50.87C177.643 50.0593 177.91 49.4353 178.443 48.998C178.987 48.55 179.622 48.326 180.347 48.326C181.446 48.326 182.299 48.678 182.907 49.382V47.99C182.907 47.478 182.726 47.078 182.363 46.79C182 46.502 181.531 46.358 180.955 46.358C180.048 46.358 179.259 46.7153 178.587 47.43L178.027 46.598C178.848 45.7447 179.878 45.318 181.115 45.318C182 45.318 182.72 45.5313 183.275 45.958C183.83 46.3847 184.107 47.0407 184.107 47.926V53.238ZM180.779 52.566C181.739 52.566 182.448 52.246 182.907 51.606V50.15C182.448 49.51 181.739 49.19 180.779 49.19C180.224 49.19 179.766 49.35 179.403 49.67C179.051 49.9793 178.875 50.3847 178.875 50.886C178.875 51.3767 179.051 51.782 179.403 52.102C179.766 52.4113 180.224 52.566 180.779 52.566ZM188.465 53.43C187.899 53.43 187.473 53.2753 187.185 52.966C186.897 52.6567 186.753 52.2087 186.753 51.622V46.566H185.473V45.51H186.753V43.398H187.953V45.51H189.521V46.566H187.953V51.366C187.953 51.6647 188.017 51.9047 188.145 52.086C188.283 52.2673 188.481 52.358 188.737 52.358C189.089 52.358 189.361 52.2513 189.553 52.038L189.905 52.934C189.553 53.2647 189.073 53.43 188.465 53.43ZM192.752 53.238H191.552V46.566H190.272V45.51H191.552V44.918C191.552 44.1287 191.749 43.5153 192.144 43.078C192.549 42.63 193.098 42.406 193.792 42.406C194.453 42.406 194.997 42.6033 195.424 42.998L194.928 43.782C194.64 43.526 194.32 43.398 193.968 43.398C193.573 43.398 193.269 43.5313 193.056 43.798C192.853 44.054 192.752 44.4273 192.752 44.918V45.51H194.32V46.566H192.752V53.238ZM201.891 52.262C201.198 53.0407 200.275 53.43 199.123 53.43C197.971 53.43 197.043 53.0407 196.339 52.262C195.646 51.4833 195.299 50.518 195.299 49.366C195.299 48.214 195.646 47.254 196.339 46.486C197.043 45.7073 197.971 45.318 199.123 45.318C200.275 45.318 201.198 45.7073 201.891 46.486C202.595 47.254 202.947 48.214 202.947 49.366C202.947 50.518 202.595 51.4833 201.891 52.262ZM197.235 51.494C197.704 52.07 198.334 52.358 199.123 52.358C199.912 52.358 200.536 52.07 200.995 51.494C201.454 50.9073 201.683 50.198 201.683 49.366C201.683 48.534 201.454 47.83 200.995 47.254C200.536 46.678 199.912 46.39 199.123 46.39C198.334 46.39 197.704 46.6833 197.235 47.27C196.776 47.846 196.547 48.5447 196.547 49.366C196.547 50.198 196.776 50.9073 197.235 51.494ZM206.103 53.238H204.903V45.51H206.103V46.758C206.818 45.8193 207.676 45.35 208.679 45.35V46.582C208.54 46.55 208.38 46.534 208.199 46.534C207.836 46.534 207.442 46.662 207.015 46.918C206.588 47.174 206.284 47.4567 206.103 47.766V53.238ZM220.712 53.238H219.512V47.99C219.512 46.9233 219.038 46.39 218.088 46.39C217.704 46.39 217.32 46.5073 216.936 46.742C216.552 46.9767 216.254 47.254 216.04 47.574V53.238H214.84V47.99C214.84 46.9233 214.366 46.39 213.416 46.39C213.043 46.39 212.664 46.5073 212.28 46.742C211.907 46.9767 211.608 47.2593 211.384 47.59V53.238H210.184V45.51H211.384V46.63C211.576 46.3313 211.912 46.038 212.392 45.75C212.872 45.462 213.368 45.318 213.88 45.318C214.446 45.318 214.904 45.4513 215.256 45.718C215.608 45.9847 215.843 46.3313 215.96 46.758C216.195 46.374 216.552 46.038 217.032 45.75C217.512 45.462 218.019 45.318 218.552 45.318C219.992 45.318 220.712 46.0967 220.712 47.654V53.238Z" fill="#8393A9"/>
</svg>
