<?xml version="1.0" encoding="utf-8"?>
<!-- Generator: Adobe Illustrator 25.2.1, SVG Export Plug-In . SVG Version: 6.00 Build 0)  -->
<svg version="1.1" xmlns="http://www.w3.org/2000/svg" xmlns:xlink="http://www.w3.org/1999/xlink" x="0px" y="0px"
	 viewBox="0 0 31 63.2" style="enable-background:new 0 0 31 63.2;" xml:space="preserve">
<style type="text/css">
	.st0{fill:#0265B5;}
	.st1{fill:#FFFFFF;}
</style>
<g id="Layer_1">
	<path class="st0" d="M15,32.1H0v15.1h15V32.1z"/>
	<path class="st1" d="M3.8,34.6v5.9c0,3.1,1.6,4.3,3.6,4.3c2.2,0,3.8-1.3,3.8-4.4v-5.9H9.9v6c0,2.2-1,3.2-2.4,3.2
		c-1.4,0-2.3-0.9-2.3-3.2v-6H3.8z"/>
	<path class="st0" d="M31,32.1H16v15.1h15V32.1z"/>
	<path class="st1" d="M20.9,44.6v-4.3c0-1.7,0-2.9-0.1-4.2h0c0.5,1.1,1.1,2.2,1.9,3.4l3.2,5.1h1.3V34.6h-1.2v4.2
		c0,1.6,0,2.8,0.1,4.1h0c-0.5-1-1-2.1-1.8-3.3l-3.2-5.1h-1.4v10.1H20.9z"/>
	<path class="st0" d="M31,48.1H16v15.1h15V48.1z"/>
	<path class="st1" d="M26,51.3c-0.6-0.5-1.5-0.8-2.8-0.8c-1,0-1.9,0.1-2.5,0.2v9.9H22v-4c0.3,0.1,0.7,0.1,1,0.1
		c1.3,0,2.4-0.4,3.1-1.1c0.5-0.5,0.8-1.3,0.8-2.2C26.9,52.5,26.6,51.8,26,51.3z"/>
	<path class="st0" d="M23.1,55.7c-0.4,0-0.8,0-1.1-0.1v-3.9c0.2,0,0.7-0.1,1.2-0.1c1.4,0,2.4,0.6,2.4,2
		C25.6,54.9,24.7,55.7,23.1,55.7z"/>
	<path class="st0" d="M15,48.1H0v15.1h15V48.1z"/>
	<path class="st1" d="M10.6,51.7c-0.9-0.8-2.2-1.3-4.1-1.3c-1,0-1.9,0.1-2.8,0.2v9.9c0.7,0.1,1.4,0.1,2.4,0.1c1.9,0,3.5-0.5,4.5-1.4
		c0.9-0.9,1.4-2.3,1.4-3.9C12,53.7,11.5,52.5,10.6,51.7z"/>
	<path class="st0" d="M6.4,59.6c-0.5,0-1,0-1.3-0.1v-8c0.3-0.1,0.8-0.1,1.5-0.1c2.7,0,4.1,1.5,4.1,3.9C10.6,58.1,9.1,59.7,6.4,59.6z
		"/>
	<path class="st0" d="M31,0H0v31.1h31V0z"/>
	<path class="st1" d="M26.6,16.2c-0.4,0.6-1,1.2-1.4,1.8c0-0.5,0.1-1.1-0.1-1.6c-0.3-1-0.6-2.1-0.7-3.2v-0.4
		c0.2,1.2,1.4,1.9,1.3,3.2c0,0.3-0.1,0.6-0.1,0.8l0,0l0-0.1c0.2-0.6,0.2-1.3,0.5-1.9c0.4-0.8,0.8-1.7,0.6-2.7
		C27.4,13.5,27.2,15.1,26.6,16.2z"/>
	<path class="st1" d="M25.9,9.7c0.7,1,0.9,2.6,0.3,3.7c-0.2,0.5-0.3,1-0.4,1.5c0-0.1,0-0.2-0.1-0.3c-0.3-1.1-1.4-1.9-1.8-3
		c-0.1-0.3-0.2-0.7-0.3-1.1c0.5,0.9,1.6,1.3,1.9,2.2c0.1,0.2,0.1,0.5,0.2,0.8c0,0,0,0,0,0c-0.1-1-0.1-2,0-3c0-0.5-0.1-1-0.3-1.4
		C25.7,9.4,25.8,9.6,25.9,9.7z"/>
	<path class="st1" d="M25.4,9.6c0.2,0.9-0.1,1.7,0.1,2.6c-0.5-0.9-1.5-1.4-2.2-2.1c-0.4-0.5-0.6-1-0.7-1.6c0.4,0.9,1.5,1.2,2.1,2
		c0.2,0.2,0.3,0.5,0.4,0.7l0,0c-0.3-0.8-0.5-1.6-0.7-2.4c-0.1-0.3-0.4-0.7-0.7-0.9C24.6,8,25.3,8.8,25.4,9.6z"/>
	<path class="st1" d="M23.3,7.6c0.6,0.6,0.9,1.3,1,2l0.1,0.2c-0.9-0.6-1.7-1.5-2.2-2.4l-0.7-0.7C22.1,6.9,22.8,7.1,23.3,7.6z"/>
	<path class="st1" d="M11.8,6.9C12.9,6.3,14.2,6,15.5,6c3.1,0,6.1,1.8,7.4,4.7c0.9,1.7,1.1,3.9,0.6,5.8c-0.6,2.2-2.4,4.5-4.6,5.4
		c-2.4,1.2-5.9,0.9-8.1-0.7c-3-2.1-4.2-5.7-3.3-9.2C8.1,10,9.7,7.9,11.8,6.9z"/>
	<path class="st1" d="M9.4,6.8C8.8,7.3,8.3,8,7.9,8.7C7.5,9.1,7,9.5,6.5,9.9c0.2-0.5,0.2-1.1,0.6-1.6C7.6,7.4,8.6,7.1,9.4,6.8z"/>
	<path class="st1" d="M6.1,8.7C6.3,8.3,6.7,8,7.1,7.9c-0.8,0.6-0.8,1.6-1,2.4c-0.1,0.3-0.2,0.6-0.3,0.9l0,0c0.1-0.3,0.4-0.7,0.7-1
		C7.1,9.7,8,9.4,8.2,8.6c0,1.1-0.9,2-1.8,2.6c-0.4,0.3-0.7,0.7-0.9,1.1c0-0.3,0-0.6,0-0.9C5.5,10.5,5.4,9.4,6.1,8.7z"/>
	<path class="st1" d="M4.4,12c0-1,0.4-1.8,0.9-2.5l0,0c-0.6,0.9-0.1,2.2-0.1,3.2l-0.1,1.1c0,0,0,0,0,0c0-0.1,0-0.2,0.1-0.4
		c0.1-0.9,0.9-1.5,1.6-2.2C7,11.1,7.2,11,7.2,10.8c-0.1,0.5-0.2,0.9-0.4,1.3c-0.5,1-1.5,1.9-1.7,3.1C5.1,14,4.3,13.2,4.4,12z"/>
	<path class="st1" d="M3.9,13.4c0.1-0.3,0.1-0.6,0.2-0.9c-0.2,1.3,0.6,2.2,0.9,3.4c0.1,0.4,0.1,0.9,0.3,1.3c0,0,0,0,0,0
		c-0.4-1.2,0.2-2.3,0.8-3.2c0.1-0.2,0.2-0.5,0.3-0.8c0.1,0.5-0.1,1.2-0.1,1.7c-0.1,0.7-0.4,1.4-0.6,2.1c-0.1,0.4-0.1,0.9,0,1.4
		l-0.1,0c-0.5-0.8-1.4-1.5-1.6-2.4C3.9,15,3.8,14.1,3.9,13.4z"/>
	<path class="st1" d="M3.9,15.9C4,17.2,5.5,18,6.2,19.1c0.2,0.2,0.3,0.5,0.5,0.7c0-0.1-0.2-0.3-0.2-0.4c-0.2-0.5-0.3-1-0.3-1.6
		c0.1-0.7,0.3-1.4,0.2-2.1C7,17,6.9,18.6,7.2,20c0.1,0.3,0.3,0.6,0.4,0.9c-1.2-0.8-2.9-1.6-3.4-3.2C3.9,17.2,3.8,16.5,3.9,15.9z"/>
	<path class="st1" d="M4.6,19.1c0.7,1.6,2.4,1.7,3.5,2.7c0.2,0.2,0.5,0.3,0.7,0.5c-0.3-0.2-0.6-0.5-0.8-0.8
		c-0.7-0.9-0.5-2.3-0.9-3.3c0.5,0.6,0.9,1.1,1.1,1.7c0.4,1,0.6,2.2,1.5,2.9c-1-0.3-2.3-0.2-3.2-0.9C5.7,21.2,4.8,20.2,4.6,19.1z"/>
	<path class="st1" d="M6.4,22c1.1,1.3,2.9,0.8,4.3,1.2c0.2,0,0.4,0.1,0.6,0.1c-0.2-0.1-0.4-0.1-0.6-0.2c-1.1-0.4-1.3-1.6-1.9-2.5
		c0.8,0.5,1.5,1.3,2.2,2c0.5,0.5,1.1,0.7,1.8,0.8c-0.2,0.1-0.4,0-0.6,0.1c-1.2,0.3-2.5,0.8-3.8,0.3C7.7,23.4,6.8,22.8,6.4,22z"/>
	<path class="st1" d="M21.3,24.9c-1.3,0.5-2.5,0-3.5-0.8c-0.4-0.2-0.7-0.6-1.3-0.6c-0.2,0-0.3,0-0.5,0c0.9,0.5,1.8,1,2.6,1.8
		c-0.1,0.1-0.3,0.3-0.5,0.4c-0.8-0.8-1.6-1.6-2.6-2.1c-0.2,0-0.3,0.1-0.5,0.2c-0.8,0.5-1.5,1.1-2.1,1.9l-0.5-0.4
		c0.8-0.8,1.7-1.4,2.6-1.9c-0.9-0.3-1.6,0.5-2.3,0.9c-0.8,0.6-2,0.9-3,0.5c-0.6-0.2-1.1-0.5-1.5-1c0.8,0.6,2,0.6,2.9,0.2
		c1.2-0.5,2.5-1.2,3.9-0.9c0.2,0,0.5,0.2,0.7,0c1.1-0.3,2.3-0.1,3.2,0.4l1,0.4c0.9,0.3,2.1,0.2,2.8-0.3
		C22.4,24.3,21.9,24.7,21.3,24.9z"/>
	<path class="st1" d="M22.6,23.6c-1.4,0.5-2.8-0.1-4.1-0.3l-0.2,0c0.6-0.1,1.3-0.3,1.8-0.8c0.7-0.7,1.4-1.5,2.3-2
		c-0.6,0.8-0.7,1.9-1.7,2.4C20.4,23,20,23,19.8,23.1c0.4,0,0.7-0.1,1.1-0.2c1.4-0.2,2.9,0,3.9-1.2C24.4,22.6,23.4,23.3,22.6,23.6z"
		/>
	<path class="st1" d="M23.4,22.2c-0.7,0.2-1.5,0.2-2.2,0.5c1.2-1,1.1-2.6,1.9-3.7c0.2-0.3,0.5-0.7,0.7-1c-0.5,0.9-0.3,2.2-0.8,3.1
		c-0.2,0.4-0.5,0.7-0.8,1c0.1,0,0.2-0.1,0.3-0.2c0.9-0.9,2.1-1.2,3-1.8c0.4-0.3,0.7-0.7,0.9-1.2C26.3,20.3,24.8,21.7,23.4,22.2z"/>
	<path class="st1" d="M25.2,19.6c-0.6,0.3-1.1,0.7-1.6,1.1v0c0.8-1.4,0.4-3.2,0.9-4.7l0.2-0.5c-0.1,0.9,0.3,1.7,0.3,2.7
		c0,0.6-0.2,1-0.5,1.5h0c0.4-0.5,0.7-1.1,1.2-1.6c0.7-0.7,1.5-1.4,1.5-2.4C27.4,17.3,26.5,18.7,25.2,19.6z"/>
	<path class="st0" d="M19,19.5L19,19.5c0.3-0.3,0.6-0.5,0.8-0.7h0c0,0-0.1,0-0.2,0c-0.1,0-0.1-0.1-0.1-0.3L19,18l0-0.1
		c0,0.1-0.1,0.2-0.2,0.2c0,0.1,0,0.2,0.1,0.2c0.2,0.1,0.4,0.2,0.4,0.3c-0.1,0.2-0.4,0.3-0.2,0.6C19.1,19.4,18.9,19.5,19,19.5z"/>
	<path class="st0" d="M16,12.8c0.1,0.1,0.1,0,0.2-0.1c0.1,0,0.2,0.1,0.3,0.2c0.1,0,0.1,0,0.2,0c0-0.3,0.5-0.3,0.6-0.6l-0.1,0
		c0,0-0.1,0-0.1-0.1c0.1-0.1,0.2-0.2,0.2-0.2c-0.4-0.2-0.8-0.4-1.2-0.5c-0.2,0-0.3,0-0.5-0.1c0.1,0.2,0,0.6,0.1,0.9l0.3,0.1
		c0.1-0.1,0.3-0.2,0.3-0.3c0.1,0,0.1,0,0.2,0c0,0.1,0,0.2,0,0.3C16.4,12.6,16.1,12.7,16,12.8z"/>
	<path class="st0" d="M20.4,15.6c-0.2,0.6-0.4,1.1-0.7,1.6c-0.1,0.2-0.3,0.4-0.5,0.5l0.4,0.3c0,0,0-0.1,0-0.1c0,0,0-0.1,0.1-0.1
		c0.2,0,0.2,0.2,0.3,0.3c0,0.2,0.1,0.3,0.1,0.4c1-1.1,1.6-2.4,1.7-3.9l0.1-0.1c-0.4,0-0.8,0-1.1,0l-0.1,0c0,0.2,0,0.5-0.1,0.7
		l0.1,0.1c0,0.1,0,0.1,0,0.2C20.5,15.7,20.5,15.6,20.4,15.6z"/>
	<path class="st0" d="M19.4,11.9c-0.1-0.3-0.3-0.5-0.6-0.7l0,0c-0.4,0.4-0.8,0.8-1.1,1.2c0,0,0.1,0.1,0.1,0.1c0-0.1,0.1-0.2,0.1-0.3
		c0.1-0.1,0.2,0,0.4,0c0.2,0,0.4,0,0.6,0c0.1,0.1,0.2,0.3,0.3,0.3c0,0.1,0,0.1,0,0.2c0,0.3,0.2-0.1,0.3,0c0.1,0,0.1,0,0.2,0.1
		c0,0.1,0.2,0.1,0.2,0.2c0,0.1-0.1,0.1-0.1,0.1c0,0.1-0.1,0.2-0.1,0.3c0.2,0,0.2-0.2,0.3-0.3c-0.1-0.2-0.1-0.4-0.2-0.6
		c-0.1,0-0.2-0.2-0.3-0.2C19.1,12.3,19.4,12.1,19.4,11.9z"/>
	<path class="st0" d="M15.7,20.6c0.3-0.1,0.7-0.1,1-0.1c-0.1,0-0.1,0-0.2-0.1c-0.2,0-0.3-0.2-0.3-0.4c0-0.1,0-0.2,0.1-0.3
		c-0.1-0.2-0.3,0-0.5-0.1c0,0-0.1-0.1-0.1-0.1l0.1,0.1C15.7,19.9,15.8,20.2,15.7,20.6z"/>
	<path class="st0" d="M16,17.3c0.1,0,0,0.1,0.1,0.2c0.2-0.1,0.3,0.1,0.4,0c0-0.2,0.2-0.2,0.3-0.2c0.2-0.1,0.4-0.2,0.4-0.5l0,0
		c-0.1,0-0.2,0.1-0.3,0.2c-0.1,0.1-0.2-0.1-0.3-0.1c0,0,0,0,0,0c0,0,0,0.1,0,0.1c-0.1,0.1-0.2-0.1-0.3,0v0c0,0,0,0.1,0,0.1
		c-0.1-0.1-0.2-0.1-0.3-0.2c-0.1,0-0.1,0-0.1,0c0,0.1-0.2,0-0.1,0.1c-0.1,0-0.1,0.1-0.2,0.2c-0.1,0-0.2,0.1-0.3,0.1c0,0,0,0.1,0,0.1
		c0.1,0,0.1,0,0.2,0C15.6,17.3,15.8,17.5,16,17.3z"/>
	<path class="st0" d="M17.2,15.7c0,0.1,0,0.1,0.1,0.2c0.2,0,0.1,0.2,0.2,0.2c0.1,0,0-0.1,0-0.1c0-0.1-0.1-0.1-0.2-0.2c0,0,0,0,0-0.1
		C17.3,15.7,17.3,15.7,17.2,15.7z"/>
	<path class="st0" d="M17,10c-0.4-0.1-0.9-0.2-1.3-0.3l0,0.1V11l0.1,0c0.7,0.1,1.3,0.3,1.8,0.8l0,0.1c0.2-0.2,0.5-0.5,0.7-0.7
		l0.2-0.1l-0.1,0C18.1,10.5,17.6,10.2,17,10z"/>
	<path class="st0" d="M9.4,14.7l0.1,0.8c0,0.3,0.2,0.6,0.1,0.9c0-0.1,0-0.2,0.1-0.2c0-0.1,0.1-0.2,0-0.2c0-0.2,0.1-0.4,0.2-0.6
		c0.2,0,0.2-0.3,0.5-0.3c0.1,0,0.2,0.1,0.2,0.2c-0.1-0.2-0.1-0.4-0.1-0.6l-0.1,0c-0.4,0-0.8,0-1.1,0L9.4,14.7z"/>
	<path class="st0" d="M16.8,16.6c0.1-0.1,0.3-0.1,0.3-0.2c-0.1,0-0.2,0.1-0.3,0.1C16.7,16.5,16.7,16.6,16.8,16.6z"/>
	<path class="st0" d="M19.4,14.5l0.1,0.1c0.1,0.1,0,0.3,0.2,0.3c0.2,0.1,0.2,0.3,0.3,0.4c0,0,0-0.1,0-0.1c0.1-0.2,0-0.5,0.1-0.7
		C19.9,14.6,19.6,14.6,19.4,14.5z"/>
	<path class="st0" d="M17.7,17.4c0.1,0,0.2,0.2,0.4,0.2c0.1-0.1,0.4,0,0.5-0.1c0-0.1,0.1-0.3,0.2-0.4h0c0.1,0.1,0.1,0.2,0.1,0.3
		c0.1-0.1,0.2-0.2,0.3-0.4c0.3-0.4,0.5-0.8,0.6-1.3c-0.1,0-0.2,0-0.3,0.1c-0.1,0-0.3,0.1-0.4,0c0,0-0.1,0-0.1,0
		c0,0.1-0.1,0.1-0.2,0.1c-0.1,0-0.1-0.1-0.1-0.2c0,0,0,0.1,0,0.1c-0.1,0.1-0.1,0.2-0.2,0.3c-0.1,0.1-0.2,0.1-0.3,0.1
		c0,0.2-0.2,0.2-0.3,0.2c0,0,0,0,0,0c0.1,0,0.1,0,0.2,0c0.2,0,0.1-0.2,0.2-0.2c0.1,0,0.2-0.1,0.2,0c0.1,0.1,0.1,0.3,0.1,0.4
		c-0.1,0.1,0,0.2-0.1,0.4c0,0.1-0.1,0.2-0.1,0.3c-0.1,0.1-0.1,0.1-0.2,0.1c-0.3-0.1-0.7-0.2-1-0.2c0,0-0.1,0,0,0.1
		C17.4,17.3,17.6,17.3,17.7,17.4z"/>
	<path class="st0" d="M15.2,21L15.2,21l-0.1,0c-1.6-0.1-3-0.7-4.2-1.8v0l-0.8,0.9c1.3,1.1,2.7,1.8,4.4,2.1c0.3,0,0.6,0,0.8,0.1
		l-0.1-0.1L15.2,21L15.2,21z"/>
	<path class="st0" d="M13.6,16.6c0.5,0.3,0.9,0.6,1.5,0.7c0-0.1,0-0.2,0-0.3s0.1-0.1,0.2-0.1c0,0,0.1-0.1,0-0.1
		c-0.1,0-0.1-0.1-0.1-0.2c0,0,0.1,0,0.1-0.1c-0.1-0.1,0-0.1,0-0.2c0,0,0,0,0.1-0.1c-0.2,0.1-0.5,0-0.7-0.1c-0.1-0.1-0.3-0.1-0.3-0.2
		C14.2,16,13.8,16.3,13.6,16.6z"/>
	<path class="st0" d="M13.2,15.3C13.1,15.3,13.1,15.3,13.2,15.3c-0.1,0-0.1,0-0.1,0c0-0.2-0.3-0.1-0.3-0.2c0.1,0.2,0.2,0.5,0.3,0.7
		c0.1,0.2,0.2,0.3,0.3,0.5c0.1-0.1,0.2-0.3,0.3-0.4c0-0.1,0-0.1,0-0.2c0-0.1,0-0.2-0.1-0.3c-0.1,0,0,0.1,0,0.2c0,0-0.1,0-0.1,0
		c-0.1,0-0.2-0.1-0.2-0.2C13.3,15.4,13.2,15.3,13.2,15.3z"/>
	<path class="st0" d="M14,15.4c0,0.1-0.1,0.2-0.2,0.3c0.1-0.1,0.2-0.2,0.3-0.2L14,15.4z"/>
	<path class="st0" d="M15.2,19.4c-1,0-1.9-0.4-2.7-1c0,0.1,0.1,0.2,0.1,0.3c-0.1,0.1-0.2,0.1-0.3,0.1c-0.2,0-0.4,0.1-0.6,0.2
		c-0.2,0.1-0.3-0.2-0.5-0.2c1.1,1,2.5,1.6,4,1.7l0.1,0.1l0-0.1v-1.1L15.2,19.4z"/>
	<path class="st0" d="M10.7,18.9c-0.1-0.1-0.3-0.2-0.4-0.4c-0.1,0-0.3-0.1-0.3-0.3c0,0,0-0.1,0-0.2l0,0.1C9.7,18.2,9.7,18,9.6,18
		c-0.1-0.1-0.1-0.3-0.2-0.3c-0.1,0-0.1-0.1-0.1-0.1c-0.2,0-0.2-0.2-0.3-0.2c0,0,0,0.1,0,0.1c-0.2,0-0.2-0.2-0.3-0.2c0,0,0,0-0.1,0
		c-0.1-0.1-0.2-0.2-0.2-0.3c-0.1-0.1-0.1-0.4,0-0.6c0,0,0.1-0.1,0.1-0.1c0-0.1,0.1-0.1,0.2-0.1c0,0,0.1,0,0.1,0.1
		c0.1,0,0.2,0,0.1-0.1C8.8,16,8.9,16,9,15.9C9,16,9.1,16.1,9.2,16.2l-0.1-0.1c-0.1-0.4-0.2-0.8-0.2-1.3c0,0,0,0,0-0.1
		c0-0.1,0-0.2,0-0.2l-0.1,0H7.6c0.1,1.3,0.4,2.5,1,3.6c0.3,0.6,0.7,1,1.1,1.5l0.8-0.8L10.7,18.9z"/>
	<path class="st0" d="M12,9.2c-0.2,0.2-0.5,0.4-0.8,0.6c0.3,0.2,0.6,0.5,0.8,0.8l0,0.1c0.7-0.7,1.6-1.1,2.5-1.3c0.2,0,0.5-0.1,0.7,0
		c0-0.4,0-0.8,0-1.2C14.1,8.2,13,8.6,12,9.2z"/>
	<path class="st0" d="M11,13.5c0,0.2,0,0.4-0.1,0.6c0.1-0.1,0.3,0,0.5,0c-0.1,0,0-0.2-0.1-0.2c0-0.1,0-0.2,0.1-0.3
		c0-0.2,0.2-0.2,0.2-0.4c0-0.2,0.2-0.1,0.3-0.1c0.1,0,0-0.1,0-0.1c0.1-0.1,0.2-0.1,0.3-0.2c0.1-0.1,0.2-0.2,0.3-0.3
		c0.2,0,0.2-0.3,0.5-0.3c-0.3-0.2-0.6-0.6-0.9-0.8C11.6,11.9,11.2,12.7,11,13.5z"/>
	<path class="st0" d="M11.2,15.2c0-0.1-0.1-0.1-0.1-0.2c0.1-0.1,0-0.4,0.2-0.5c-0.1,0-0.3,0.1-0.4,0l0.1,0.1c0,0.3,0.1,0.5,0.1,0.8
		C11.1,15.4,11.1,15.3,11.2,15.2z"/>
	<path class="st0" d="M11,10.1l-0.5,0.6c-0.7,1-1.1,2.2-1.2,3.5l1.1,0l0.1,0c0,0,0-0.1,0-0.1c0.1-1.2,0.5-2.2,1.3-3.1
		C11.6,10.6,11.3,10.4,11,10.1L11,10.1z"/>
	<path class="st0" d="M14.4,17.9c0.1-0.1,0.2-0.2,0.3-0.2c-0.4,0.1-0.7-0.2-1-0.3c-0.2-0.1-0.4-0.2-0.5-0.4
		c-0.2,0.3-0.5,0.6-0.8,0.8c0.1,0,0.2,0.1,0.3,0.2c0.6,0.5,1.4,0.8,2.1,0.9l-0.2-0.1c-0.1-0.2-0.3-0.4-0.4-0.6
		C14.4,18.2,14.4,18,14.4,17.9z"/>
	<path class="st0" d="M11.6,14.6l0,0.2c0,0.1-0.2,0-0.3,0.1c-0.1,0.1,0,0.2,0,0.2c-0.1,0.3,0.3,0.3,0.2,0.6c0.1,0.1,0,0.3,0.1,0.5
		c0,0.3,0,0.6,0.2,0.8l0,0.2c0,0.2-0.2,0.1-0.2,0.3c0,0,0.1,0,0.1,0.1c0.3-0.4,0.7-0.8,1.1-1.1l-0.1-0.2c-0.3-0.5-0.5-0.9-0.6-1.4
		l-0.1-0.1c0,0.1-0.1,0.2-0.1,0.4l0,0c-0.1,0-0.1-0.1-0.2-0.1c0,0-0.1-0.1,0-0.2c0,0,0.1,0,0.1,0c0,0,0-0.1,0-0.2
		c0-0.1-0.1-0.2,0-0.3c0.1,0,0.1,0.1,0.2,0.1c0.1,0,0.1,0,0.2-0.1c0-0.1,0.1-0.2,0-0.2c0.1-0.2,0-0.3,0-0.5c-0.1-0.1-0.3,0-0.4,0
		c-0.3,0.1,0.1,0.3,0,0.6C11.8,14.7,11.7,14.5,11.6,14.6z"/>
	<path class="st0" d="M22.2,14.6L22.2,14.6L22.2,14.6c-0.1,1.5-0.6,2.7-1.4,3.8c-0.1,0.2-0.3,0.4-0.5,0.5c0.3,0.2,0.7,0.6,0.9,0.9
		l0-0.1c1.3-1.4,2-3.1,2.1-5.1l0-0.1l-0.1,0H22.2z"/>
	<path class="st0" d="M11,9.5L11,9.5c1.3-1.2,2.6-1.8,4.2-1.8l0-0.1v-1l0-0.1c-1.7,0.1-3.1,0.6-4.5,1.6c-0.2,0.2-0.5,0.5-0.7,0.6h0
		C10.4,8.8,10.7,9.2,11,9.5z"/>
	<path class="st0" d="M15.2,9.8c-1,0.1-1.9,0.5-2.7,1.2c0.3,0.2,0.6,0.6,0.9,0.8c0,0,0-0.1,0.1-0.1c0.4-0.3,0.8-0.5,1.3-0.7
		c0.2,0,0.4-0.1,0.6-0.1C15.2,10.6,15.2,10.1,15.2,9.8L15.2,9.8z"/>
	<path class="st0" d="M15.2,11.4c-0.7,0.1-1.3,0.3-1.8,0.8h0.1c0.1,0.1,0.2,0.1,0.3,0.2c0,0.1-0.1,0.1-0.1,0.1c0,0,0,0,0.1,0
		c0.1,0,0.1,0,0.1-0.1c0.1-0.1,0.1,0.1,0.2,0.1c0.1,0,0.2,0,0.2,0c0.1-0.1,0.2,0,0.2-0.1c0.1-0.1,0.1-0.3,0.2-0.4c0.1,0,0,0.1,0,0.2
		c0.1,0.1,0.3-0.1,0.4,0C15.2,12,15.2,11.7,15.2,11.4z"/>
	<path class="st0" d="M15.3,13.3c-0.1,0.2-0.3,0.2-0.5,0.3c-0.1,0.1,0,0.2-0.2,0.2c0,0.1-0.2,0.1-0.1,0.3c-0.1,0.1,0,0.3-0.1,0.5
		c-0.2,0.1-0.2-0.2-0.3-0.3l0,0c0,0-0.1,0-0.1,0c0,0-0.1,0-0.1,0c-0.1,0.1-0.1,0.2-0.1,0.3c0,0.1-0.1,0-0.1,0.1c0.1,0,0.3,0,0.4-0.1
		c0.1,0,0.2,0,0.3,0c0,0,0.1,0,0.1,0.1h0c0.1,0,0.1-0.1,0.1-0.2c0-0.1,0.1-0.1,0.2-0.1c0.1,0,0,0.1,0,0.1c0.2,0.1,0,0.2-0.1,0.3
		c0,0.1,0,0.2-0.1,0.2c0,0,0,0,0-0.1h0c0,0.1,0,0.2,0.1,0.2c0.1-0.1,0.1-0.2,0.3-0.3c0.1-0.1,0-0.2,0.1-0.3c0.2,0,0.5-0.1,0.6,0.1
		c0,0.1,0,0.1,0,0.2c0,0.1-0.1,0.2-0.1,0.3c0,0.1,0,0.1,0,0.2c-0.1,0.2-0.3,0.1-0.5,0.2c0.2,0.2,0.6,0.3,0.9,0.2
		c0.2,0,0.1-0.2,0.2-0.3c0.1-0.3,0.3-0.1,0.5-0.2c0.1-0.1,0.1-0.2,0.1-0.4c-0.2-0.1-0.2-0.2-0.2-0.3c-0.1-0.1-0.1-0.3-0.2-0.3
		c0,0,0-0.1,0-0.1c0-0.1,0.1-0.1,0.1-0.2c-0.1-0.1-0.1-0.2-0.1-0.3c-0.2,0-0.2-0.2-0.3-0.2c0-0.1-0.1-0.1-0.2-0.1
		c-0.2,0.1-0.2-0.1-0.4-0.2c0,0,0-0.1,0-0.1c0.1-0.1,0.2,0,0.2,0l-0.1,0c-0.1-0.1-0.2,0-0.3,0C15.3,13,15.2,13.2,15.3,13.3z"/>
	<path class="st0" d="M8.9,14.1l0-0.2c0.1-1.3,0.5-2.5,1.3-3.6c0.2-0.2,0.3-0.5,0.6-0.6c-0.3-0.2-0.6-0.6-0.8-0.8l0-0.1
		c-1.2,1.3-1.9,2.8-2.1,4.5c0,0.2,0,0.5-0.1,0.8C8.1,14.1,8.5,14.1,8.9,14.1z"/>
	<path class="st0" d="M20.1,19.1c-0.1,0.2-0.4,0.4-0.6,0.6c-0.3,0.3-0.7,0.3-0.8,0.7c-0.1,0.1-0.2,0.3-0.4,0.4
		c-0.1,0.2-0.3,0.2-0.4,0.3c-0.3,0.3-0.6-0.2-0.9-0.2L16.4,21c-0.2,0-0.5,0.1-0.7,0c0,0.4,0,0.9,0,1.3l0.1,0c2-0.1,3.7-0.8,5.2-2.2
		l-0.9-0.8V19.1z"/>
	<path class="st0" d="M15.7,7.5c0,0,0-0.1,0-0.1c0.1,0,0.1,0,0.1,0.1c0,0.1,0,0.2,0,0.2c0,0,0.1,0,0.1,0c0.9,0.1,1.8,0.3,2.6,0.8v0
		c0.2-0.1,0.4-0.2,0.5,0c0.2-0.1,0.2,0.2,0.4,0.2c0.2,0.1,0.4,0.3,0.5,0.6c0,0.1,0.1,0.1,0.2,0.2c0.1-0.3,0.4-0.5,0.6-0.7l0.1-0.1
		c-1.3-1.2-2.7-1.8-4.4-2.1c-0.3,0-0.6,0-0.8-0.1C15.8,6.7,15.7,7.2,15.7,7.5z"/>
	<path class="st0" d="M15.7,9.3c0.2-0.1,0.3,0,0.5,0c0.8,0.1,1.6,0.4,2.2,0.9c-0.1-0.1-0.2-0.2-0.2-0.3c0,0,0,0,0,0
		c0-0.1-0.1-0.2-0.1-0.3c0,0,0,0,0.1,0c0.1,0.1,0.2,0.3,0.3,0.4c0.1,0,0.2,0,0.2,0.1c0.1,0.1,0,0.2,0.1,0.3c0,0.2,0.3,0.4,0.3,0.6
		c0,0.1,0.1,0,0.1,0l0.2,0.3c0,0.1,0,0.1,0,0.2c0.1,0,0.2-0.1,0.3-0.1c0.2,0.1,0,0.2,0,0.3c0.1,0,0.1,0,0.2,0c0,0.1-0.1,0.1-0.1,0.2
		c0,0.1,0.1,0.1,0.1,0.1c0.1,0,0.1,0.1,0.1,0.1c0.2,0.2-0.1,0.5,0,0.7c0.1,0.1,0,0.3-0.1,0.4c0,0.2-0.2,0.3-0.2,0.5l-0.2,0
		c-0.1,0.1,0.1,0.2,0,0.3h0.5l0,0c-0.1-0.2,0-0.4,0.1-0.6c0.1-0.1,0.1-0.3,0.2-0.5c0,0,0.1-0.1,0.1,0c0,0.1,0,0.3-0.1,0.4
		c0.1,0.2,0.1,0.5,0.1,0.7c0.4,0,0.8,0,1.2,0l0-0.1c-0.1-0.8-0.2-1.5-0.5-2.2c-0.1,0-0.1,0.1-0.2,0c0,0-0.1,0,0-0.1
		c-0.2-0.2-0.3-0.3-0.5-0.5c-0.2,0-0.3-0.2-0.5-0.2c-0.2-0.1-0.1-0.3-0.3-0.3c-0.1,0-0.2-0.1-0.2-0.3c0-0.2,0-0.5-0.2-0.6
		C19.2,9.8,19.1,10,19,10c-0.1,0,0-0.1-0.1-0.2c0-0.1-0.1-0.1-0.1-0.2c0.2-0.2-0.2-0.2-0.1-0.5c0-0.2-0.2-0.2-0.3-0.4
		c-0.6-0.3-1.3-0.5-2-0.6c-0.2,0-0.3,0-0.5-0.1l0,0.1C15.7,8.6,15.8,9,15.7,9.3z"/>
	<path class="st0" d="M20.2,9.7c0.1,0,0.1,0.1,0.2,0.2c0.3,0.2,0.4,0.5,0.7,0.7c0.1,0.3,0.5,0.6,0.5,0.9c0.3,0.8,0.6,1.6,0.6,2.6
		l0,0c0,0,0.1,0,0.1,0l1.2,0c-0.1-0.1,0-0.3-0.1-0.4c-0.2-1.8-0.9-3.4-2.2-4.8c-0.2,0.3-0.5,0.6-0.8,0.9L20.2,9.7z"/>
	<path class="st1" d="M15.9,7.3c0-0.1,0.1,0,0.2,0L16.6,7c0.2,0,0.5,0,0.7,0.2v0c-0.1,0.1-0.3,0.2-0.5,0.1
		C16.5,7.5,16.1,7.7,15.9,7.3C15.9,7.4,15.9,7.4,15.9,7.3z"/>
	<path class="st1" d="M19.4,8.1c0.1,0,0.2,0.1,0.2,0.1c0,0.1,0.1,0.2,0,0.2c-0.2,0.1-0.2-0.2-0.4-0.2c0,0,0-0.1,0-0.1
		C19.3,8,19.3,8.2,19.4,8.1z"/>
</g>
<g id="Layer_2">
</g>
</svg>
