<svg xmlns="http://www.w3.org/2000/svg" viewBox="0 0 96.62 72.38"><defs><style>.cls-1{stroke:#fff;stroke-miterlimit:3.97;stroke-width:0.3px;}</style></defs><g id="dominicanRepublic" data-name="dominicanRepublic"><g id="Layer_1-2" data-name="Layer 1"><g id="do"><path id="path3372" class="cls-1" d="M4.48,58.6c1.16-2.34,2.33-7,.87-9.39C4.18,47.16,2.14,42.75.39,41c3.5.29,11.37-5.58,7.29-9.39C3.89,27.78,15,25.73,10.6,20.44c-1.46-1.76.58-5.28.87-7,.88-3.23-2-6.76-.58-9.69,3.5-7,10.49-.3,14.87-2.06,3.49-1.46,7-2.35,10.49-.29,3.5,1.76,7,2.05,10.2,3.82,2.92,1.46,4.67,3.23,8.17,3.23,3.79,0,4.08-.59,4.66,3.52.88,7.63,4.08,8.51,10.79,6.75,2.33-.59,5.54-1.47,7.58.29-1.17,3.53-4.08,3.53-7,2.94s-9.33,1.76-3.79,3.23c2.33.59,11.66,4.4,13.7,3.23,6.12-2.94,9.62,5,13.41,8.51,7.58,7-4.37,10.28-5.83,13.21-2.33,5-3.5,0-5.54-2.05s-4.37-.88-6.7-1.18a16.88,16.88,0,0,0-5.54-1.17c-2.33,0-4.37,2.05-6.41.58-9-5.87-11.37,5-18.37,6.17-1.75.29-7,1.47-8.45.29-2.05-1.76.29-5.28-2.92-6.75-1.17,2.94-4.66,2.64-6.41,4.7-1.46,1.76-4.08-1.18-4.67,1.47-2.62,7.92-5.83,13.21-11.37,20-1.16-2.35-4.08-3.52-4.66-6.17.29-2.64,0-5.87-2.62-7.34"/><path id="path3374" class="cls-1" d="M89.31,56.55a14.26,14.26,0,0,1-5-1.76c1.46-.59,4.38-.59,5,1.76"/></g></g></g></svg>