<svg xmlns="http://www.w3.org/2000/svg" viewBox="0 0 81.66 85.79"><defs><style>.cls-1{fill:teal;stroke:#fff;stroke-miterlimit:3.97;stroke-width:0.3px;}</style></defs><g id="Layer_2" data-name="Layer 2"><g id="Layer_1-2" data-name="Layer 1"><g id="ht"><path id="path5512" class="cls-1" d="M11,60.52c6.48,3.56,8.54,2.07,14.72,2.37-7.36,1.19,3.24,3.56,5,3.85,4.12.6,8.24.89,12.36,1.78,5.6,1.19,4.71-1.78,9.13-3.85,2.94-1.19,7.65,1.48,7.95-3.26.88-8.6-11.48-11.27-9.72-22.24s3-17.78-7.65-20.75c-4.12-1.18-14.13-.59-5.89-8.3,9.72-8.89,17.07-3,26.5.6,6.47,2.37,19.72-.3,17.95,11.26-.59,5-1.17,8.3-.59,13.64.89,6.82-5.29,6.82-5.88,10.37-.3,2.08,3.23,2.67,2.94,6.52-.59,5.34-4.12,9.19-8.24,8.9C74,67,76.64,77.71,74,85.42,68.4,75,58.39,76.23,49.85,79.19c-8,2.67-26.79-10.07-31.79,2.08C14.23,90.46,9.52,75,3.93,73.86-5.2,72.08,4.22,54.59,11,60.52"/><path id="path5514" class="cls-1" d="M23.06,85.12a12.06,12.06,0,0,1-2.94-1.18c2.06-.89,1.77,0,2.94,1.18"/><path id="path5516" class="cls-1" d="M46.91,57.85c-.59-.59-16.19-9.49-10.89-11,3.82-.89,13.83,4.74,10.89,11"/><path id="path5518" class="cls-1" d="M54.27,2.71a10.63,10.63,0,0,1-2.65-1.18C53.68-.85,56.33,0,58.1,2.71H54.27"/></g></g></g></svg>