<svg xmlns="http://www.w3.org/2000/svg" viewBox="0 0 50.37 61.08"><defs><style>.cls-1{fill:#97002b;stroke:#97002b;stroke-miterlimit:10;}</style></defs><g id="Layer_2" data-name="Layer 2"><g id="Layer_1-2" data-name="Layer 1"><path class="cls-1" d="M2.34,51.14a5.51,5.51,0,0,0,1.53.2c.31,0,.64-.43.84-.76a25.53,25.53,0,0,0,1.51-2.77c.17-.38,0-.93.13-1.36A1.61,1.61,0,0,1,7,45.69c.13-.54-.22-.69-.67-.73-.82-.06-1-.35-.88-1.21a.86.86,0,0,1,.36-.48,6.12,6.12,0,0,1,.91-.39,4.57,4.57,0,0,0-.55-.51,1,1,0,0,1-.52-1.32,3.84,3.84,0,0,0,.18-.83,1.75,1.75,0,0,1,.93-1.46c.67-.39.67-.67,0-1A1.65,1.65,0,0,1,6,36.54a4.72,4.72,0,0,1,.78-4.43,9.15,9.15,0,0,0,.93-1.88.43.43,0,0,0,0-.27,5,5,0,0,1,.86-3.31.69.69,0,0,1,.43-.34.87.87,0,0,0,.72-1.19.85.85,0,0,1,.28-1c.45-.39.92-.76,1.37-1.14a2.65,2.65,0,0,0,.4-.42,1.89,1.89,0,0,1,1.44-1,5.63,5.63,0,0,0,2-.73c.6-.29,1.13-.36,1.57.15a7.87,7.87,0,0,1,.64-1.11,6.68,6.68,0,0,1,.89-.73l-.49-.58a6.4,6.4,0,0,0,.89-.65,1,1,0,0,0,.27-.66,2.45,2.45,0,0,1,1.21-2.69l.61-.35a3.65,3.65,0,0,1-.65-1.13c-.05-.31.24-.69.42-1.15a1.29,1.29,0,0,1,.11-1.43,9.15,9.15,0,0,0,.73-2c.13-.48.23-.85.75-1a1.88,1.88,0,0,0,1.58-1.59,2.07,2.07,0,0,1,.6-.88,1.05,1.05,0,0,0,.2-1.57,4.07,4.07,0,0,1-.26-.89c.73.09,1.33.14,1.92.26.1,0,.21.35.21.53s-.16.3-.31.55l1.26.22c-1.15-.88.21-1.51.08-2.23.76,0,.77,0,.67-.62l2-.72a1.08,1.08,0,0,1,.44,0A9.71,9.71,0,0,1,32,.78a1.71,1.71,0,0,1,.68.53,7.23,7.23,0,0,0,.9,1.12c.2.15.6-.05.9-.22l.87.19s.1,0,.11.06c.2,1,1,.73,1.52.83s.62.39.56.92A10.86,10.86,0,0,0,37.48,6c0,.41.26.81.27,1.22a9.67,9.67,0,0,1-.19,1.44c.16,0,.35,0,.47.08s.14.28.21.42c-.46.15-.07.37,0,.56.13.89.92,1.22,1.31,1.9.11.21.42.29.64.44l.05,1a5.9,5.9,0,0,0,.72.51c.2.11.46.29.63.22.54-.22,1,.19,1.43.26,1.23.16,1.36,1.41,1.89,2.28,0,.07.1.21.07.26a2.17,2.17,0,0,0-.47,1.17c0,.24-.56.49-.87.73a2.11,2.11,0,0,1,.33.69,3.2,3.2,0,0,1-.25,1c.1,0,.34.08.51,0a1,1,0,0,1,1.37.26c.1.14.22.35.35.36.4.05.4.31.39.65a3.2,3.2,0,0,0,.14.75c0,.14.11.26.15.39A5.65,5.65,0,0,0,48,25.09c.69.9,1.23,1.95,1.81,2.88-.29,1.1-1.21.83-1.91,1.13l.91,1.18-.34.74c.91.93-.27,1.56-.23,2.48A1.2,1.2,0,0,1,48,35a.68.68,0,0,1-.57,0c-.53-.21-.52-.23-.83.28a3.73,3.73,0,0,1,.59,1c.13.59.09,1.19-.65,1.35-.13,0-.25.37-.28.58a2.16,2.16,0,0,0,.05.59l.77.95-1.25.5c0,.05,0,.21-.06.37-.12.7-.5,1-1.17.93-.47-.07-.72.08-1,.6a5.51,5.51,0,0,1-1.37,1.69,3.93,3.93,0,0,1-1.49.6c-.09,0-.34-.23-.38-.39-.1-.51-.34-.74-.76-.67,0,.55,0,1.08-.08,1.6s-.2,1-.31,1.55c1.09.41,1.09.41,1.18,2,.88-.47,1,.61,1.48,1,.18.15.11,1-.06,1.37-.41.9-1.14,1-2.15.55.49.58.28.76-.07,1a14.23,14.23,0,0,0-1.4,1.4l-.81.77.17.28c-.05.07-.06.12-.09.14a22.4,22.4,0,0,1-2.77,1.39c-.92.31-1.75,1-2.81.84-.35-.05-.74.35-1.13.47A6.19,6.19,0,0,0,28,59.17a.34.34,0,0,1-.18.09c-.88.14-1.77.23-2.64.43-.65.14-1.28.45-1.93.66a2.13,2.13,0,0,1-1,.21c-.52-.14-1-.53-1.56-.21a.26.26,0,0,1-.24,0c-.6-.66-1.33-.47-2-.41a2.73,2.73,0,0,1-2.25-.8,2.44,2.44,0,0,0-1.89-.81.48.48,0,0,0-.27.09,3.27,3.27,0,0,1-2.49.8.45.45,0,0,1-.31,0A4.85,4.85,0,0,0,9.5,58.3a25.11,25.11,0,0,1-2.75-1.56,1.49,1.49,0,0,0-.67-.18,1.06,1.06,0,0,1-1.2-.69,8.8,8.8,0,0,0-1.66-2.13A1,1,0,0,0,1.56,54c-.26.41-.58.44-.86.22a.9.9,0,0,1-.17-.77c.37-1,.81-2,1.25-3,0-.09.26-.08.4-.12Z"/></g></g></svg>