<svg xmlns="http://www.w3.org/2000/svg" viewBox="0 0 100.1 26.11"><defs><style>.cls-1{fill:#333;}</style></defs><g id="Layer_2" data-name="Layer 2"><g id="Layer_1-2" data-name="Layer 1"><path class="cls-1" d="M68.7,2.09A1.91,1.91,0,0,1,70,2.38a1.71,1.71,0,0,0,1.48.21,1.26,1.26,0,0,1,.87-.2,7.43,7.43,0,0,0,2.3.26h.66a.55.55,0,0,1,.28.06,5.14,5.14,0,0,0,1.61.56,1.53,1.53,0,0,1,.89.49c.06.08.14.22.25.2a3.84,3.84,0,0,1,1.17,0h.13s.08.06.11.06c.28,0,.41,0,.44.39a.82.82,0,0,0,.87.73,1.85,1.85,0,0,1,1.1.38A3.57,3.57,0,0,0,83.48,6a.65.65,0,0,0,.7-.27,1.66,1.66,0,0,1,1.16-.55c.12,0,.29-.08.36.07a.46.46,0,0,1,0,.46,4.3,4.3,0,0,0-.34.59c-.07.17-.13.39.14.47s.37.19.13.48-.35.25-.37.48c0,.48,0,1,0,1.44a1.32,1.32,0,0,1-.07.62.38.38,0,0,0,.12.49c.16.11.26,0,.37-.13s.14-.21.23-.14c.36.25.79.34,1.13.61.12.1.18.26,0,.33a.42.42,0,0,0-.31.5c0,.22-.06.35-.3.34s-.3.06-.14.27,0,.27-.15.28a.55.55,0,0,1-.62-.44c0-.17-.14-.36-.34-.29s-.17.27-.1.44a1.15,1.15,0,0,1,.11.29c0,.26,0,.49-.26.6a.46.46,0,0,1-.64-.24c0-.14-.1-.28-.25-.27a.33.33,0,0,0-.27.27.25.25,0,0,1-.3.2c-.32,0-.47.13-.45.48s-.11.33-.33.25L82,13.41a.44.44,0,0,0-.51.13.59.59,0,0,0-.08.7c.07.14.12.29,0,.41s-.21,0-.31-.09-.44-.15-.58,0a6.4,6.4,0,0,0-.69,1.26s0,.07,0,.1a.91.91,0,0,1-.12.47,5.14,5.14,0,0,0-.64,1.78c-.07.34-.22.43-.52.42s-.57.17-.57.58a2.81,2.81,0,0,0,0,.41.72.72,0,0,1-.47.81,2.42,2.42,0,0,1-.67.27.94.94,0,0,0-.67.46c-.06.12-.16.26-.3.24s-.43.14-.64.24a5.75,5.75,0,0,1-.78.31,10,10,0,0,0-1.14.24,1.47,1.47,0,0,1-1.84-.3c-.16-.17-.29-.11-.44.05a1.9,1.9,0,0,1-1.75.73,4.59,4.59,0,0,0-.83,0,.82.82,0,0,0-.31.07,18.21,18.21,0,0,1-2.06.95,7.44,7.44,0,0,1-2,.08c-.09,0-.26-.1-.26-.21a.29.29,0,0,1,.3-.26h.73c.08,0,.11-.05.07-.14a1,1,0,0,0-1.12-.38,2.41,2.41,0,0,1-.54.32c-.64.25-1.34.17-2,.36-.23.06-.3,0-.39-.23A1.52,1.52,0,0,0,58.24,23c-.27.4-.69.7-1.23.23a2.27,2.27,0,0,0-.77-.44,1.92,1.92,0,0,1-.77-.52,2.23,2.23,0,0,0-2.88-.33,4.46,4.46,0,0,1-1.47.52,6.45,6.45,0,0,1-2,.09c-.15,0-.27,0-.35-.23-.16-.36-.35-.39-.7-.25a2,2,0,0,0-.53.31.67.67,0,0,1-.66.13,4.27,4.27,0,0,1-1.45-.75c-.28-.23-.49-.27-.72,0-.09.11-.19.17-.3,0s-.21-.09-.28.06-.12.3-.31.25a.4.4,0,0,1-.24-.38c0-.15,0-.29-.23-.32s-.26.11-.33.24a2,2,0,0,0-.09.26.67.67,0,0,1-.25.39,3.18,3.18,0,0,1-2.13.79c-.12,0-.27,0-.37.08s-.27.12-.43.13c-.38,0-.76-.09-1.14-.07-.17,0-.35,0-.43.2-.16.41-.33.56-.83.46a2.85,2.85,0,0,1-1.54-.81c-.25-.25-.49-.58-.93-.42-.09,0-.18,0-.27-.07a1,1,0,0,0-1.12.24.27.27,0,0,1-.32.1c-.17-.07,0-.2,0-.3.07-.28-.14-.53-.38-.43a1.63,1.63,0,0,0-.89.73.48.48,0,0,0,0,.37c.1.37,0,.46-.34.49a.82.82,0,0,1-.69-.34,1.29,1.29,0,0,0-.74-.38,2.4,2.4,0,0,1-1.05-.36.6.6,0,0,0-.76.07c-.18.26,0,.41.16.58s.1.37-.12.41-.47.07-.53-.29-.15-.45-.37-.48c-.39-.06-.43-.3-.4-.64,0-.12,0-.25,0-.38.07-.51.07-1.07.73-1.17a.36.36,0,0,0,.21-.11c.13-.12.41-.16.35-.39s-.28-.33-.49-.42-.15,0-.21-.06c-.34-.16-.38-.25-.2-.59a3.21,3.21,0,0,0,.15-.53c.14-.54,0-1.16.34-1.63a3.28,3.28,0,0,0,.42-1.85,2.29,2.29,0,0,1,.71-1.91.6.6,0,0,0,0-1,3.06,3.06,0,0,1-.68-1.56C28.26,10,28,9.33,27.06,9.24a1,1,0,0,1-.84-.64,7.35,7.35,0,0,0-.9-1.71.52.52,0,0,1,.15-.69c.32-.19.65-.37,1-.54A13.46,13.46,0,0,0,28.7,4.4a1.08,1.08,0,0,0,.47-.93A9.16,9.16,0,0,0,29,2.1a.78.78,0,0,1,.05-.56A2.09,2.09,0,0,1,31.1.28a24.82,24.82,0,0,1,2.73.08A4.74,4.74,0,0,1,35.11.6a5.81,5.81,0,0,0,1.36.49,8.08,8.08,0,0,0,3.14.19,10.4,10.4,0,0,1,3.34,0,3.64,3.64,0,0,1,.93.17,4.14,4.14,0,0,0,2.12.1c.81-.13,1.61-.27,2.42-.35a4.6,4.6,0,0,1,1.69.17.75.75,0,0,0,.67-.05.56.56,0,0,1,.62-.05,1.74,1.74,0,0,0,.34.12c.78,0,1.5.36,2.28.39a1.81,1.81,0,0,0,1.27-.17A1.5,1.5,0,0,1,56,1.37a1.89,1.89,0,0,0,1-.29.18.18,0,0,1,.19,0,8.6,8.6,0,0,0,2.3.45c.83.21,1.69,0,2.54.19A9.87,9.87,0,0,0,63.17,2c.46.06,1,.24,1.37-.19a.49.49,0,0,1,.4-.1c.06,0,.14,0,.16.07s0,.1-.08.13-.19.19-.11.33a.58.58,0,0,0,1,.2A5.54,5.54,0,0,0,66.2,2c.06-.07.09-.17.21-.15s.1.12.12.21a1.13,1.13,0,0,0,.31.71.69.69,0,0,0,.77.11c.17-.07.11-.25.08-.37s-.07-.4.12-.48a.41.41,0,0,1,.54.08A.21.21,0,0,0,68.7,2.09Z"/><path class="cls-1" d="M68.7,2.09a.21.21,0,0,1-.35,0A.41.41,0,0,0,67.81,2c-.19.08-.16.29-.12.48s.09.3-.08.37a.69.69,0,0,1-.77-.11A1.13,1.13,0,0,1,66.53,2c0-.09,0-.19-.12-.21s-.15.08-.21.15a5.54,5.54,0,0,1-.33.51.58.58,0,0,1-1-.2c-.08-.14,0-.24.11-.33s.1-.07.08-.13-.1-.07-.16-.07a.49.49,0,0,0-.4.1c-.41.43-.91.25-1.37.19A9.87,9.87,0,0,1,62,1.72c-.85-.22-1.71,0-2.54-.19a8.6,8.6,0,0,1-2.3-.45.18.18,0,0,0-.19,0,1.89,1.89,0,0,1-1,.29,1.5,1.5,0,0,0-.67.24A1.81,1.81,0,0,1,54,1.78c-.78,0-1.5-.35-2.28-.39a1.74,1.74,0,0,1-.34-.12.56.56,0,0,0-.62.05.75.75,0,0,1-.67.05,4.6,4.6,0,0,0-1.69-.17c-.81.08-1.61.22-2.42.35a4.14,4.14,0,0,1-2.12-.1A3.64,3.64,0,0,0,43,1.28a10.4,10.4,0,0,0-3.34,0,8.08,8.08,0,0,1-3.14-.19A5.81,5.81,0,0,1,35.11.6,4.74,4.74,0,0,0,33.83.36,24.82,24.82,0,0,0,31.1.28a2.09,2.09,0,0,0-2.05,1.26A.78.78,0,0,0,29,2.1a9.16,9.16,0,0,1,.17,1.37,1.08,1.08,0,0,1-.47.93,13.46,13.46,0,0,1-2.25,1.26c-.33.17-.66.35-1,.54a.52.52,0,0,0-.15.69,7.35,7.35,0,0,1,.9,1.71,1,1,0,0,0,.84.64c.9.09,1.2.73,1.36,1.52a3.06,3.06,0,0,0,.68,1.56.6.6,0,0,1,0,1,2.29,2.29,0,0,0-.71,1.91,3.28,3.28,0,0,1-.42,1.85c-.32.47-.2,1.09-.34,1.63a3.21,3.21,0,0,1-.15.53c-.18.34-.14.43.2.59.06,0,.14,0,.21.06s.44.19.49.42-.22.27-.35.39a.36.36,0,0,1-.21.11c-.66.1-.66.66-.73,1.17,0,.13,0,.26,0,.38,0,.34,0,.58.4.64.22,0,.34.26.37.48s.3.33.53.29.27-.23.12-.41-.34-.32-.16-.58a.6.6,0,0,1,.76-.07,2.4,2.4,0,0,0,1.05.36,1.29,1.29,0,0,1,.74.38.82.82,0,0,0,.69.34c.37,0,.44-.12.34-.49a.48.48,0,0,1,0-.37,1.63,1.63,0,0,1,.89-.73c.24-.1.45.15.38.43,0,.1-.15.23,0,.3a.27.27,0,0,0,.32-.1,1,1,0,0,1,1.12-.24c.09,0,.18.11.27.07.44-.16.68.17.93.42a2.85,2.85,0,0,0,1.54.81c.5.1.67-.05.83-.46.08-.19.26-.2.43-.2.38,0,.76.1,1.14.07.16,0,.31,0,.43-.13s.25-.09.37-.08a3.18,3.18,0,0,0,2.13-.79.67.67,0,0,0,.25-.39,2,2,0,0,1,.09-.26c.07-.13.14-.26.33-.24s.21.17.23.32a.4.4,0,0,0,.24.38c.19.05.25-.11.31-.25s.16-.24.28-.06.21.1.3,0c.23-.31.44-.27.72,0a4.27,4.27,0,0,0,1.45.75.67.67,0,0,0,.66-.13,2,2,0,0,1,.53-.31c.35-.14.54-.11.7.25.08.19.2.2.35.23a6.45,6.45,0,0,0,2-.09,4.46,4.46,0,0,0,1.47-.52,2.23,2.23,0,0,1,2.88.33,1.92,1.92,0,0,0,.77.52,2.27,2.27,0,0,1,.77.44c.54.47,1,.17,1.23-.23a1.52,1.52,0,0,1,2.67.23c.09.19.16.29.39.23.65-.19,1.35-.11,2-.36a2.41,2.41,0,0,0,.54-.32,1,1,0,0,1,1.12.38c0,.09,0,.13-.07.14h-.73a.29.29,0,0,0-.3.26c0,.11.17.21.26.21a7.44,7.44,0,0,0,2-.08,18.21,18.21,0,0,0,2.06-.95.82.82,0,0,1,.31-.07,4.59,4.59,0,0,1,.83,0,1.9,1.9,0,0,0,1.75-.73c.15-.16.28-.22.44-.05a1.47,1.47,0,0,0,1.84.3,10,10,0,0,1,1.14-.24,5.75,5.75,0,0,0,.78-.31c.21-.1.38-.28.64-.24s.24-.12.3-.24a.94.94,0,0,1,.67-.46,2.42,2.42,0,0,0,.67-.27A.72.72,0,0,0,78,19.6a2.81,2.81,0,0,1,0-.41c0-.41.18-.6.57-.58s.45-.08.52-.42a5.14,5.14,0,0,1,.64-1.78.91.91,0,0,0,.12-.47s0-.07,0-.1a6.4,6.4,0,0,1,.69-1.26c.14-.17.38-.13.58,0s.18.21.31.09.07-.27,0-.41a.59.59,0,0,1,.08-.7.44.44,0,0,1,.51-.13l.59.21c.22.08.35,0,.33-.25s.13-.49.45-.48a.25.25,0,0,0,.3-.2.33.33,0,0,1,.27-.27c.15,0,.2.13.25.27a.46.46,0,0,0,.64.24c.29-.11.31-.34.26-.6A1.15,1.15,0,0,0,85,12c-.07-.17-.09-.37.1-.44s.3.12.34.29a.55.55,0,0,0,.62.44c.18,0,.33-.05.15-.28s0-.27.14-.27.32-.12.3-.34a.42.42,0,0,1,.31-.5c.23-.07.17-.23,0-.33-.34-.27-.77-.36-1.13-.61-.09-.07-.16.07-.23.14s-.21.24-.37.13a.38.38,0,0,1-.12-.49,1.32,1.32,0,0,0,.07-.62c0-.48-.08-1,0-1.44,0-.23.24-.33.37-.48s.22-.39-.13-.48-.21-.3-.14-.47a4.3,4.3,0,0,1,.34-.59.46.46,0,0,0,0-.46c-.07-.15-.24-.1-.36-.07a1.66,1.66,0,0,0-1.16.55.65.65,0,0,1-.7.27,3.57,3.57,0,0,1-1.37-.52A1.85,1.85,0,0,0,81,5.09a.82.82,0,0,1-.87-.73c0-.34-.16-.42-.44-.39,0,0-.07,0-.11-.06A.26.26,0,0,1,80,3.79a.7.7,0,0,1,.4.59c0,.31.15.44.4.43a2.74,2.74,0,0,1,1.68.64,3.31,3.31,0,0,0,.92.3c.39.11.59-.12.86-.34A1.48,1.48,0,0,1,85.76,5a.34.34,0,0,1,.17.55c-.17.23-.21.53-.42.73s0,.19.12.24c.41.17.45.32.2.68-.14.21-.38.34-.49.61.22,0,.39-.16.59,0s.24.11.24.25-.1.24-.26.24c0-.12.15-.26,0-.37a.24.24,0,0,0-.28,0c-.16.11,0,.25,0,.37-.15,0-.16.15-.14.27s-.13.56.09.83c.08.09-.09.21-.15.32s-.12.19,0,.28.17,0,.25-.06a.4.4,0,0,1,.57,0c.24.22.58.21.84.42s.33.52,0,.72c-.13.08-.1.2-.09.31a.58.58,0,0,1-.22.51c-.06.06-.14.09-.18.19-.15.47-.45.6-.88.39-.2-.11-.29-.12-.31.16a.47.47,0,0,1-.49.46h-.43c-.08,0-.18,0-.21-.07-.15-.49-.28-.22-.43,0s-.2.07-.31.07-.31.08-.31.32a.44.44,0,0,1-.73.37.74.74,0,0,0-.53-.13.31.31,0,0,0-.24.52.39.39,0,0,1,0,.55.33.33,0,0,1-.51.07c-.38-.23-.54-.13-.74.45-.05.14-.08.26-.21.33a.21.21,0,0,0-.13.19c.11.55-.28.92-.46,1.35a8,8,0,0,0-.26,1c-.13.54-.26.74-.77.73-.25,0-.34.1-.3.34a2,2,0,0,1-.23,1,.55.55,0,0,1-.25.27,13.62,13.62,0,0,0-1.8,1,9.44,9.44,0,0,1-1.25.55c-.62.27-1.3.25-1.93.5a1.22,1.22,0,0,1-1.29-.4c-.15-.14-.23-.12-.39,0-.36.19-.58.58-1,.73a1.15,1.15,0,0,1-.89,0,1.39,1.39,0,0,0-1.18.14c-.28.11-.5.34-.83.35s-.4.23-.58.38a.7.7,0,0,1-.48.16h-2c-.44,0-.52-.1-.48-.55,0-.07.08-.14,0-.19s-.12,0-.18.05a1.81,1.81,0,0,1-.86.27,4.53,4.53,0,0,0-1.15.19c-.4.16-.62,0-.8-.46a1.31,1.31,0,0,0-.65-.62,1.25,1.25,0,0,0-1.67.52,2.88,2.88,0,0,1-.7.56.35.35,0,0,1-.41,0A4.09,4.09,0,0,0,56,22.89a3.12,3.12,0,0,1-.87-.71,2.4,2.4,0,0,0-2.54-.08,4.87,4.87,0,0,1-1.32.5,8.28,8.28,0,0,1-1.92.18c-.08,0-.2,0-.25,0-.21-.16-.35-.19-.5.09s-.3.12-.45,0-.08-.26,0-.38.18-.12.07-.21a.2.2,0,0,0-.28,0,2.88,2.88,0,0,1-.52.4.42.42,0,0,1-.47.07,9.55,9.55,0,0,1-1.74-1c-.13-.1-.19-.1-.28,0s-.26.32-.5.18-.13,0-.19.09-.21.29-.36.22-.43-.11-.42-.42a.17.17,0,0,0-.12-.21c-.14,0-.12.1-.15.18a1.51,1.51,0,0,1-.94.92c-.32.14-.62.32-.93.48a.4.4,0,0,1-.21.07,21.64,21.64,0,0,1-2.41.14.37.37,0,0,0-.46.27c-.13.35-.49.46-1,.34a2.74,2.74,0,0,1-1.5-.83c-.1-.11-.24-.2-.34-.32s-.17-.2-.31-.14-.07.22-.09.33h0a1.05,1.05,0,0,0-.78,0h0c0-.16.3-.19.16-.36s-.28-.05-.43,0a.47.47,0,0,0-.32.21.36.36,0,0,1-.37.17c-.16,0-.35.09-.46-.1s.07-.3.17-.41.07-.1,0-.16a.17.17,0,0,0-.17-.08,1.3,1.3,0,0,0-.81.68.2.2,0,0,0,0,.13c.16.33.2.62-.24.74-.07,0-.08.12-.05.18a.28.28,0,0,1-.16.42c-.32.17-.63.42-1,.14-.12-.09-.28-.15-.28-.31s.16-.26.3-.34A.75.75,0,0,1,31,24c0,.19-.22.12-.32.18s-.15.08-.15.2.06.14.15.19.34,0,.51,0a.39.39,0,0,0,.36-.25c0-.16-.18-.13-.23-.25s0-.18-.14-.06H31a1.13,1.13,0,0,0-.81-.66c-.39-.12-.84-.1-1.16-.44a.49.49,0,0,0-.5-.08c-.18,0-.12.19,0,.3s.36.31.22.59-.42.21-.65.21a.37.37,0,0,1-.43-.37.41.41,0,0,0-.42-.4c-.22,0-.31-.13-.31-.35,0-.47,0-.93,0-1.39a.87.87,0,0,1,.66-.76c.21,0,.34-.15.51-.23s0-.17-.07-.23-.52-.18-.76-.35a.28.28,0,0,1-.12-.38,3.22,3.22,0,0,0,.32-1.59,1.56,1.56,0,0,1,.22-.68,4.81,4.81,0,0,0,.48-2.5,1.44,1.44,0,0,1,.56-1.24.8.8,0,0,0,.32-.74.52.52,0,0,0-.14-.33,2,2,0,0,1-.6-1.19A3.84,3.84,0,0,0,27.94,10a.82.82,0,0,0-.54-.42,5.19,5.19,0,0,1-.79-.25,1.59,1.59,0,0,1-.72-.92,7.89,7.89,0,0,0-.65-1.3c-.37-.58-.33-.83.26-1.15s1.21-.65,1.84-.94a9.4,9.4,0,0,0,1.32-.79.65.65,0,0,0,.25-.53c0-.6-.09-1.2-.08-1.8A2,2,0,0,1,30.41.14,9.07,9.07,0,0,1,31.78,0c1,.07,2,.12,3,.22a2.76,2.76,0,0,1,.8.33c.48.2,1,.26,1.47.41a5.2,5.2,0,0,0,2.47.1A10.63,10.63,0,0,1,41.81.93a16.42,16.42,0,0,1,1.95.3c.46.07.9.34,1.38.24a17.36,17.36,0,0,0,1.75-.32l.06,0A11.53,11.53,0,0,0,48.8.91a4.32,4.32,0,0,1,.8.14A1.57,1.57,0,0,0,51,1c.06,0,.13-.07.18,0,.57.38,1.27.24,1.86.52a.86.86,0,0,0,.36,0,1.74,1.74,0,0,1,.63.14,1.27,1.27,0,0,0,1.24-.17,1.67,1.67,0,0,1,1.14-.32c.12,0,.27,0,.35-.07.29-.39.57-.17.86,0a.71.71,0,0,0,.18.08c.88,0,1.75.18,2.63.24l1.82.12a2.52,2.52,0,0,1,.57.23,3.52,3.52,0,0,0,1.32.18c.23,0,.35-.18.5-.31a.39.39,0,0,1,.54,0,.33.33,0,0,1,.07.49.19.19,0,0,0,0,.3.35.35,0,0,0,.46,0A1.34,1.34,0,0,0,66,2c.1-.22.2-.47.45-.43s.33.35.35.59a.54.54,0,0,0,.44.49c.13,0,.25,0,.24-.18s0-.57.29-.62S68.46,1.69,68.7,2.09ZM63.85,23c.18.09.28.1.42,0A.38.38,0,0,0,63.85,23Z"/><path class="cls-1" d="M86.79,16.45c0-.49.11-.59.55-.64a9.6,9.6,0,0,0,2.17-.49,16.29,16.29,0,0,1,2.95-.93,7.7,7.7,0,0,1,1.8-.06l1.73.16a10.43,10.43,0,0,1,2.21.44c.13,0,.31.11.32.31s-.16.22-.28.29a7.26,7.26,0,0,1-1.43.47,3.18,3.18,0,0,0-1,.48.65.65,0,0,1-.87,0,.25.25,0,0,0-.31,0c-.34.29-.76.15-1.14.24a.89.89,0,0,0-.47.22,2.65,2.65,0,0,1-1.87.77.78.78,0,0,1-.52-.15.72.72,0,0,0-1,0,1.9,1.9,0,0,1-2.46-.23A1.14,1.14,0,0,1,86.79,16.45Z"/><path class="cls-1" d="M2.75,15.82h.86a.68.68,0,0,1,.7.54c0,.16.1.31.14.46a1.14,1.14,0,0,1-.22,1A2.58,2.58,0,0,1,2.52,19c-.13,0-.28.05-.38-.06-.33-.39-.84-.51-1.22-.82S.39,17.58.56,17c0-.11.07-.21.11-.32.32-.84.32-.85,1.19-.86Z"/><path class="cls-1" d="M95.57,7.94a2.34,2.34,0,0,1,0-.46A.42.42,0,0,0,95.43,7a.45.45,0,0,1-.12-.47c0-.31.31-.38.54-.19A1.9,1.9,0,0,0,98,6.71a.9.9,0,0,1,.83,0c.13.06.38.16.2.44s0,.21.14.21h.5a.39.39,0,0,1,.43.34.45.45,0,0,1-.31.52,3.68,3.68,0,0,1-.59.18c-.24,0-.34.22-.4.44-.11.39-.26.46-.6.28-.16-.09-.24.05-.33.14-.41.42-.41.42-.78-.05-.17-.23-.36-.44-.54-.65s-.18-.15-.2,0-.11.42-.33.39a.56.56,0,0,1-.44-.5,3.9,3.9,0,0,1,0-.59Z"/><path class="cls-1" d="M79.46,3.91a3.84,3.84,0,0,0-1.17,0c-.11,0-.19-.12-.25-.2a1.53,1.53,0,0,0-.89-.49,5.14,5.14,0,0,1-1.61-.56.55.55,0,0,0-.28-.06H74.6a7.43,7.43,0,0,1-2.3-.26,1.26,1.26,0,0,0-.87.2A1.71,1.71,0,0,1,70,2.38a3.13,3.13,0,0,0,1.71-.12,2.26,2.26,0,0,1,1.47.07,3.16,3.16,0,0,0,1.43.09A2,2,0,0,1,76,2.66a3.9,3.9,0,0,0,1,.33,2.06,2.06,0,0,1,1.23.63.43.43,0,0,0,.6,0C79.12,3.45,79.27,3.69,79.46,3.91Z"/><path class="cls-1" d="M51.94,25.78a1.37,1.37,0,0,1,.72-1,.33.33,0,0,1,.38.14.32.32,0,0,1,0,.38,1.94,1.94,0,0,1-.73.77C52.07,26.19,51.94,26.1,51.94,25.78Z"/><path class="cls-1" d="M17.71,5.85a.88.88,0,0,1-.55-.27c-.13-.1-.06-.24,0-.36A.73.73,0,0,1,18,5.09c.12.09.29.19.25.41A.59.59,0,0,1,17.71,5.85Z"/><path class="cls-1" d="M93.78,6.93A.62.62,0,0,1,93.9,7a1.37,1.37,0,0,0,.49.33.39.39,0,0,1,.24.38c0,.14-.09.18-.2.23s-.28,0-.39-.13a.77.77,0,0,0-.46-.32.27.27,0,0,1-.17-.33C93.46,7,93.62,7,93.78,6.93Z"/><path class="cls-1" d="M86.79,6.54c0-.23,0-.39.3-.39a.66.66,0,0,1,.54.59.35.35,0,0,1-.39.36A.51.51,0,0,1,86.79,6.54Z"/><path class="cls-1" d="M87,5.72a.78.78,0,0,1-.81-.49c-.07-.28.08-.47.35-.41a2.22,2.22,0,0,1,.78.43.16.16,0,0,1,.05.21A.41.41,0,0,1,87,5.72ZM87,5.49a.14.14,0,0,0,.18-.07.1.1,0,0,0,0-.15A2,2,0,0,0,86.5,5a.13.13,0,0,0-.14.07c0,.08,0,.13,0,.19C86.54,5.5,86.77,5.4,87,5.49Z"/><path class="cls-1" d="M87.88,5.85c-.21,0-.37,0-.36-.24s.18-.23.34-.23a.25.25,0,0,1,.29.28C88.15,5.88,88,5.84,87.88,5.85Z"/><path class="cls-1" d="M89,6.1c0,.15-.19.19-.34.22s-.26-.05-.25-.24.14-.29.33-.29S89,5.84,89,6.1Z"/><path class="cls-1" d="M.58,14.38a.49.49,0,0,1-.36.36c-.14,0-.22-.1-.22-.23a.35.35,0,0,1,.33-.35C.46,14.13.54,14.25.58,14.38Z"/><path class="cls-1" d="M86.65,7.93c0-.14,0-.32.19-.31S87,7.88,87,8a.17.17,0,0,1-.19.24C86.65,8.25,86.66,8.08,86.65,7.93Z"/><path class="cls-1" d="M94.83,6c0,.15,0,.25-.2.25s-.3-.06-.31-.24a.23.23,0,0,1,.26-.25C94.73,5.79,94.84,5.84,94.83,6Z"/><path class="cls-1" d="M35,23.12a.15.15,0,0,1,.11.23.55.55,0,0,1-.37.33.46.46,0,0,1-.54-.27h0c.56.16.66.13.78-.27Z"/><path class="cls-1" d="M85.61,8.28c0-.12-.15-.26,0-.37a.24.24,0,0,1,.28,0c.16.11,0,.25,0,.37Z"/><path class="cls-1" d="M34.24,23.41c-.18-.1-.18-.19,0-.29h0v.27Z"/><path class="cls-1" d="M31.34,24c.05.12.27.09.23.25a.39.39,0,0,1-.36.25c-.17,0-.33.1-.51,0s-.15-.08-.15-.19.06-.15.15-.2.28,0,.32-.18h.18Z"/><path class="cls-1" d="M34.25,23.4v-.27a1.05,1.05,0,0,1,.78,0C34.91,23.53,34.81,23.56,34.25,23.4Z"/><path class="cls-1" d="M63.85,23a.38.38,0,0,1,.42,0C64.13,23.08,64,23.07,63.85,23Z"/><path class="cls-1" d="M31.34,24,31.2,24C31.3,23.85,31.32,23.93,31.34,24Z"/><path class="cls-1" d="M87,5.49c-.19-.09-.42,0-.55-.2,0-.06-.09-.11,0-.19A.13.13,0,0,1,86.5,5a2,2,0,0,1,.61.24.1.1,0,0,1,0,.15A.14.14,0,0,1,87,5.49Z"/></g></g></svg>